<svg xmlns="http://www.w3.org/2000/svg" width="200" height="14.91" viewBox="0 0 52.917 3.945"><path d="M11.223 88.872q.126 0 .2.076t.075.186q0 .114-.076.192-.073.076-.199.076-.118 0-.194-.076-.076-.078-.076-.192 0-.11.076-.186t.194-.076zm.3 1.101v2.055h.663v.297h-1.764v-.297h.726V90.27h-.704v-.297zm1.49 2.352v-2.352h.318l.03.326q.142-.18.357-.277.214-.098.42-.098.346 0 .502.183.158.183.158.51v1.708h-.375v-1.432q0-.24-.026-.388-.027-.148-.114-.217-.085-.07-.262-.07-.138 0-.26.061-.121.06-.217.152-.094.09-.157.18v1.714zm3.574-2.4q.498 0 .753.332.254.333.254.89 0 .36-.116.637t-.342.436q-.225.156-.553.156-.498 0-.755-.335t-.257-.889q0-.361.116-.638.116-.28.342-.434.228-.156.558-.156zm0 .305q-.304 0-.46.226-.154.225-.154.696 0 .467.152.693.154.223.458.223.303 0 .455-.226.154-.225.154-.694 0-.47-.152-.692-.151-.226-.453-.226zm3.334-.306q.112 0 .217.05.105.048.172.19.067.14.067.41v1.75h-.349v-1.69q0-.22-.027-.32-.026-.097-.154-.097-.105 0-.21.067-.105.064-.2.214v1.827h-.351v-1.69q0-.222-.027-.32t-.154-.098q-.11 0-.212.067-.103.064-.199.214v1.827h-.346v-2.352h.295l.022.273q.096-.137.214-.228.121-.094.297-.094.134 0 .253.065.118.062.174.246.096-.139.217-.224.12-.087.301-.087zm1.947-.723q.346 0 .583.105.239.102.389.283t.232.418.114.504q.03.268.03.543 0 .563-.053.936-.051.37-.192.553-.14.186-.41.186-.14 0-.242-.067-.1-.067-.165-.17-.063-.1-.092-.208-.029-.109-.026-.19h-.018q-.043.103-.116.204-.074.098-.195.163-.12.067-.299.067-.243 0-.393-.134-.147-.132-.214-.362-.067-.232-.067-.527 0-.583.23-.866.232-.286.645-.286.156 0 .3.033.142.034.33.134v1.32q0 .241.042.368.043.126.114.172.072.047.159.047.14 0 .198-.183t.07-.493.01-.692q0-.32-.035-.597-.036-.279-.136-.489t-.29-.328-.498-.118q-.22 0-.474.08t-.54.33l-.215-.25q.3-.26.612-.372.315-.114.612-.114zm-.241 1.429q-.304 0-.418.223-.111.221-.111.652 0 .328.076.536.076.205.279.205.156 0 .245-.071.092-.071.139-.163.049-.094.076-.159v-1.156q-.13-.067-.286-.067zm2.994-1.758q.125 0 .2.076t.075.186q0 .114-.076.192-.074.076-.199.076-.118 0-.194-.076-.076-.078-.076-.192 0-.11.076-.186t.194-.076zm.3 1.101v2.055h.663v.297H23.82v-.297h.726V90.27h-.704v-.297zm3.356 2.233q-.12.08-.293.125-.172.045-.337.045-.38 0-.585-.199t-.205-.511v-1.402h-.54v-.29h.54v-.534l.375-.045v.578h.813l-.045.29h-.768v1.398q0 .197.103.3.104.102.346.102.131 0 .243-.03.112-.032.208-.081zm1.188-2.233v1.666q0 .232.096.335t.299.103q.194 0 .366-.11.174-.111.27-.263v-1.73h.376v2.35h-.32l-.031-.316q-.138.178-.344.274-.203.094-.409.094-.341 0-.51-.18-.168-.184-.168-.512v-1.71zm2.327 2.352v-.288h.366V90.26h-.366v-.288h.652l.069.556q.136-.29.33-.449.195-.158.514-.158.098 0 .174.016.078.013.159.035l-.054.795h-.308v-.5h-.02q-.54 0-.775.773v.996h.478v.288zm4.064-3.345.375.046v3.299h-.328l-.036-.31q-.132.187-.304.274-.17.087-.364.087-.306 0-.505-.154-.198-.154-.294-.429-.096-.277-.096-.64 0-.354.11-.63.109-.28.314-.438.208-.16.498-.16.39 0 .63.276zm-.532 1.246q-.295 0-.453.23t-.159.696q0 .92.565.92.199 0 .342-.111.143-.114.237-.26v-1.174q-.096-.143-.233-.221-.136-.08-.299-.08Zm2.695-1.354q.125 0 .2.076t.075.186q0 .114-.076.192-.074.076-.199.076-.118 0-.194-.076-.076-.078-.076-.192 0-.11.076-.186t.194-.076zm.3 1.101v2.055h.663v.297h-1.764v-.297h.725V90.27h-.703v-.297zm1.889-.993v3.345h-.375v-3.299zm1.57.993-1.059 1.059 1.181 1.293h-.493L40.25 91.04l1.04-1.068zm1.085 0v1.666q0 .232.096.335t.299.103q.194 0 .366-.11.174-.111.27-.263v-1.73h.376v2.35h-.32l-.031-.316q-.138.178-.344.274-.203.094-.409.094-.341 0-.51-.18-.168-.184-.168-.512v-1.71zm3.22-.947v2.718q0 .174.107.248.11.071.281.071.105 0 .201-.022.099-.022.195-.06l.1.274q-.096.047-.239.083-.14.038-.32.038-.312 0-.506-.172-.194-.174-.194-.48v-2.4h-.722v-.298zm2.66.898q.497 0 .752.333.254.333.254.89 0 .36-.116.637t-.341.436q-.226.156-.554.156-.498 0-.755-.335t-.257-.889q0-.361.116-.638.116-.28.342-.434.228-.156.558-.156zm0 .306q-.304 0-.46.226-.155.225-.155.696 0 .467.152.693.154.223.458.223.303 0 .455-.226.154-.225.154-.694 0-.47-.151-.692-.152-.226-.454-.226zm3.744-.257-.855 2.352h-.436l-.848-2.352h.397l.681 2.01.672-2.01zm1.215 2.008q0-.163.111-.277.112-.114.28-.114.17 0 .28.114.115.114.115.277 0 .165-.114.281-.112.114-.281.114-.168 0-.28-.114-.111-.116-.111-.281zm3.247.071q.176 0 .328-.056.154-.058.283-.15l.183.246q-.154.132-.37.208-.217.076-.424.076-.351 0-.599-.15-.246-.151-.375-.424-.13-.275-.13-.643 0-.353.13-.632.13-.28.377-.44.248-.163.601-.163.449 0 .786.273l-.183.25q-.306-.21-.607-.21-.304 0-.5.23-.197.228-.197.692 0 .471.196.683.197.21.5.21zm2.512-2.128q.498 0 .752.333.255.333.255.89 0 .36-.116.637t-.342.436q-.226.156-.554.156-.498 0-.755-.335-.256-.335-.256-.889 0-.361.116-.638.116-.28.341-.434.228-.156.559-.156zm0 .306q-.304 0-.46.226-.154.225-.154.696 0 .467.151.693.154.223.458.223t.456-.226q.154-.225.154-.694 0-.47-.152-.692-.152-.226-.453-.226zm3.334-.306q.111 0 .216.05.105.048.172.19.067.14.067.41v1.75h-.348v-1.69q0-.22-.027-.32-.027-.097-.154-.097-.105 0-.21.067-.105.064-.201.214v1.827h-.35v-1.69q0-.222-.027-.32t-.155-.098q-.109 0-.212.067-.102.064-.198.214v1.827h-.346v-2.352h.294l.023.273q.096-.137.214-.228.12-.094.297-.094.134 0 .252.065.119.062.174.246.096-.139.217-.224.12-.087.302-.087z" style="color:#000;fill:#05285b;stroke:#fff;stroke-opacity:1;stroke-width:.1;stroke-dasharray:none" transform="translate(-10.378 -88.828)"/></svg>
