<svg xmlns:inkscape="http://www.inkscape.org/namespaces/inkscape" xmlns:sodipodi="http://sodipodi.sourceforge.net/DTD/sodipodi-0.dtd" xmlns="http://www.w3.org/2000/svg" xmlns:svg="http://www.w3.org/2000/svg" version="1.1" id="Layer_1" x="0px" y="0px" width="512" viewBox="0 0 512 512" enable-background="new 0 0 512 512" xml:space="preserve" sodipodi:docname="647857_adobe_express.svg" inkscape:version="1.2.2 (b0a8486541, 2022-12-01)" height="512"><defs id="defs193"/><sodipodi:namedview id="namedview191" pagecolor="#505050" bordercolor="#eeeeee" borderopacity="1" inkscape:showpageshadow="0" inkscape:pageopacity="0" inkscape:pagecheckerboard="0" inkscape:deskcolor="#505050" showgrid="false" inkscape:zoom="1.1559539" inkscape:cx="189.88647" inkscape:cy="292.83176" inkscape:window-width="1920" inkscape:window-height="1053" inkscape:window-x="0" inkscape:window-y="27" inkscape:window-maximized="1" inkscape:current-layer="Layer_1"/>
<path fill="#000000" opacity="1.000000" stroke="none" d=" M1.000000,188.000000   C1.000000,125.333336 1.000000,63.166668 1.000000,1.000000   C171.666672,1.000000 342.333344,1.000000 513.000000,1.000000   C513.000000,171.666672 513.000000,342.333344 513.000000,513.000000   C342.333344,513.000000 171.666672,513.000000 1.000000,513.000000   C1.000000,404.833344 1.000000,296.666656 1.000000,188.000000  M49.846104,306.499939   C49.847595,351.996063 49.826469,397.492218 49.867298,442.988312   C49.876892,453.680176 56.030544,461.148010 65.888443,462.760773   C76.079056,464.428009 76.906464,465.177887 78.942497,474.756592   C197.644318,474.756592 316.389557,474.756592 435.458099,474.756592   C435.561432,468.650787 437.857391,464.142914 444.179535,463.072510   C459.818237,460.424744 464.152130,455.372955 464.152985,439.423767   C464.155701,388.927917 464.181854,338.432037 464.134338,287.936249   C464.123871,276.796814 467.343475,266.972412 475.075623,258.781158   C475.609467,258.215668 475.964508,257.481476 476.515686,256.656616   C466.642151,247.181595 463.897186,235.461456 464.066833,222.397797   C464.374054,198.737061 464.151489,175.069473 464.155090,151.404755   C464.156738,140.765427 466.322174,138.191360 476.752838,136.569244   C476.752838,133.160828 476.752838,129.727478 476.752838,126.325333   C468.326141,125.314980 464.942871,122.723114 464.919098,116.742531   C464.909729,114.387100 465.340698,111.193550 466.865021,109.853912   C469.506531,107.532455 473.155914,106.357803 476.669006,104.555206   C476.669006,102.371979 476.669006,99.450874 476.669006,96.580421   C466.632812,95.400635 464.174225,92.600082 464.155090,82.654999   C464.147064,78.488693 464.211456,74.321129 464.131134,70.156296   C463.923859,59.411163 457.010986,52.323418 446.281433,50.925198   C443.256866,50.531048 439.911469,48.923027 437.739471,46.814545   C435.971313,45.098133 435.735931,41.802708 434.877594,39.368496   C316.077820,39.368496 197.333801,39.368496 78.641609,39.368496   C77.591370,47.015522 74.993874,50.207150 69.438560,50.983543   C54.950241,53.008392 49.850681,58.838814 49.848846,73.440681   C49.842533,123.769875 49.852665,174.099075 49.828556,224.428253   C49.827202,227.254196 49.702385,230.093002 49.416019,232.903503   C48.451866,242.365967 43.904255,250.157379 37.346386,257.072784   C45.119164,264.872864 49.367714,273.898712 49.742447,284.504211   C49.989468,291.495270 49.825848,298.500854 49.846104,306.499939  z" id="path148" style="fill:none"/>
<path fill="#44C873" opacity="1.000000" stroke="none" d=" M49.846100,305.999939   C49.825848,298.500854 49.989468,291.495270 49.742447,284.504211   C49.367714,273.898712 45.119164,264.872864 37.346386,257.072784   C43.904255,250.157379 48.451866,242.365967 49.416019,232.903503   C49.702385,230.093002 49.827202,227.254196 49.828556,224.428253   C49.852665,174.099075 49.842533,123.769875 49.848846,73.440681   C49.850681,58.838814 54.950241,53.008392 69.438560,50.983543   C74.993874,50.207150 77.591370,47.015522 78.641609,39.368496   C197.333801,39.368496 316.077820,39.368496 434.877594,39.368496   C435.735931,41.802708 435.971313,45.098133 437.739471,46.814545   C439.911469,48.923027 443.256866,50.531048 446.281433,50.925198   C457.010986,52.323418 463.923859,59.411163 464.131134,70.156296   C464.211456,74.321129 464.147064,78.488693 464.155090,82.654999   C464.174225,92.600082 466.632812,95.400635 476.669006,96.580421   C476.669006,99.450874 476.669006,102.371979 476.669006,104.555206   C473.155914,106.357803 469.506531,107.532455 466.865021,109.853912   C465.340698,111.193550 464.909729,114.387100 464.919098,116.742531   C464.942871,122.723114 468.326141,125.314980 476.752838,126.325333   C476.752838,129.727478 476.752838,133.160828 476.752838,136.569244   C466.322174,138.191360 464.156738,140.765427 464.155090,151.404755   C464.151489,175.069473 464.374054,198.737061 464.066833,222.397797   C463.897186,235.461456 466.642151,247.181595 476.515686,256.656616   C475.964508,257.481476 475.609467,258.215668 475.075623,258.781158   C467.343475,266.972412 464.123871,276.796814 464.134338,287.936249   C464.181854,338.432037 464.155701,388.927917 464.152985,439.423767   C464.152130,455.372955 459.818237,460.424744 444.179535,463.072510   C437.857391,464.142914 435.561432,468.650787 435.458099,474.756592   C316.389557,474.756592 197.644318,474.756592 78.942497,474.756592   C76.906464,465.177887 76.079056,464.428009 65.888443,462.760773   C56.030544,461.148010 49.876892,453.680176 49.867298,442.988312   C49.826469,397.492218 49.847595,351.996063 49.846100,305.999939  M386.834991,343.309723   C366.684204,346.234436 355.900513,358.602478 355.859375,378.871185   C355.837738,389.536041 355.805817,400.201324 355.880829,410.865692   C355.907745,414.686523 355.762665,418.600006 356.506836,422.308533   C359.785858,438.649292 374.875122,450.110260 390.959198,448.792297   C408.346283,447.367523 421.250916,433.796234 421.701874,415.917664   C422.025299,403.094543 421.897858,390.255615 421.755280,377.426147   C421.533051,357.427856 407.808838,343.748383 386.834991,343.309723  M305.021698,343.400970   C284.948059,342.401184 269.503174,356.602722 269.189697,376.619385   C268.986206,389.614502 268.985901,402.618073 269.192230,415.613098   C269.489075,434.307983 284.028198,448.840332 302.154144,448.868347   C320.486450,448.896667 334.910309,434.191559 335.065582,415.163666   C335.168945,402.499451 335.156097,389.833221 335.068146,377.168793   C334.942963,359.142120 323.808777,346.383881 305.021698,343.400970  M222.728714,169.395447   C237.557938,164.580444 246.410339,153.028885 246.705704,137.445648   C246.951599,124.472771 246.967804,111.487282 246.706573,98.515007   C246.322250,79.429306 231.796967,65.006401 213.474899,65.130013   C195.167023,65.253532 181.017578,79.891022 180.860535,99.011490   C180.760773,111.156387 181.289795,123.323067 180.742538,135.444122   C179.687469,158.812729 201.185425,175.193436 222.728714,169.395447  M421.787659,109.505783   C421.772278,105.508484 421.912842,101.503448 421.714874,97.515213   C420.783875,78.760567 406.029541,64.664917 387.931091,65.136368   C369.960785,65.604485 356.057434,80.049454 355.880890,98.632019   C355.757477,111.622887 355.828613,124.616051 355.891174,137.607819   C355.902344,139.923584 356.057709,142.289948 356.552368,144.543869   C360.084473,160.638092 375.106506,172.049698 390.793945,170.668167   C408.427246,169.115280 421.103760,155.872742 421.705963,137.984802   C422.014008,128.833862 421.777863,119.664604 421.787659,109.505783  M234.045090,302.577911   C242.348495,295.889954 246.548813,287.111633 246.704697,276.554474   C246.898773,263.409546 247.012451,250.253174 246.689240,237.113327   C246.220596,218.061600 231.499588,203.786514 213.120850,204.085846   C195.003906,204.380890 181.025864,218.927414 180.863495,237.819824   C180.754807,250.467499 180.852890,263.116852 180.839417,275.765472   C180.824966,289.319305 186.689438,299.628479 198.645981,305.834015   C210.614197,312.045532 222.413696,310.799072 234.045090,302.577911  M145.422363,211.023010   C134.294266,203.044052 122.423897,201.579758 110.194481,207.897049   C97.957413,214.218246 92.341537,224.856003 92.237000,238.455215   C92.141052,250.936630 92.075150,263.421417 92.252289,275.901062   C92.522865,294.963531 106.866280,309.581909 125.140953,309.678192   C143.674683,309.775787 157.978256,295.070709 158.124237,275.637543   C158.216766,263.322479 158.014053,251.004471 158.181122,238.691010   C158.330856,227.655823 154.394623,218.595673 145.422363,211.023010  M335.089264,265.498047   C335.085144,256.004181 335.187256,246.508804 335.054169,237.016754   C334.799652,218.864105 320.705872,204.482376 302.939880,204.091324   C284.977966,203.695953 269.911285,217.652100 269.286163,235.999802   C268.810028,249.973877 268.793152,263.992401 269.307281,277.964111   C269.947571,295.363892 283.291199,308.442871 300.676971,309.619141   C316.673798,310.701477 331.659821,298.907166 334.514130,282.438568   C335.413879,277.247345 334.936401,271.817444 335.089264,265.498047  M132.347778,402.499847   C132.347916,413.485718 132.329514,424.471619 132.366562,435.457367   C132.372711,437.278229 132.426453,439.138824 132.795517,440.910828   C133.761093,445.546814 137.832642,448.819336 142.395279,448.846558   C147.198303,448.875214 151.344421,445.417450 152.180878,440.533600   C152.459732,438.905487 152.486603,437.220062 152.487701,435.560730   C152.505249,409.094788 152.501419,382.628845 152.494690,356.162903   C152.494385,354.999207 152.831528,353.585602 152.304703,352.717224   C150.506317,349.752899 148.932129,346.216644 146.261642,344.327148   C142.888824,341.940735 138.694366,343.051270 135.727646,345.971161   C123.983978,357.529327 112.338158,369.188538 100.776794,380.929199   C98.027649,383.720886 96.665955,387.649689 98.889236,390.980225   C100.736122,393.746918 103.910072,396.776215 106.908302,397.291626   C109.711601,397.773499 113.665184,395.787750 116.039467,393.679565   C121.305817,389.003510 125.899521,383.569855 130.767487,378.445129   C131.294266,378.732330 131.821030,379.019531 132.347809,379.306732   C132.347809,386.704437 132.347809,394.102142 132.347778,402.499847  M98.064575,110.305435   C100.630424,120.275490 108.941856,122.648422 116.331650,115.497444   C118.844368,113.065933 121.267212,110.541801 123.762245,108.091698   C126.268539,105.630531 128.813629,103.208870 132.340744,99.806061   C132.340744,103.142532 132.340607,104.933235 132.340759,106.723930   C132.342300,124.042580 132.292816,141.361450 132.369553,158.679764   C132.402161,166.038391 136.251984,170.573578 142.246475,170.720917   C148.238480,170.868195 152.436813,166.302963 152.457825,159.077469   C152.537735,131.601013 152.486115,104.124191 152.493546,76.647507   C152.494873,71.745781 150.889053,67.836472 146.002014,65.911743   C141.308090,64.063072 137.625076,65.811760 134.317474,69.131844   C123.622360,79.867302 112.785622,90.465187 102.272575,101.375397   C100.237694,103.487167 99.417213,106.769119 98.064575,110.305435  M278.229401,95.729561   C275.885284,98.098785 273.407471,100.351944 271.227356,102.863510   C267.648987,106.985916 267.787811,112.781265 271.333801,116.484322   C275.065979,120.381798 280.985016,120.690994 285.302643,116.917435   C288.433380,114.181213 291.246460,111.082916 294.221771,108.167099   C296.857666,105.583931 299.521942,103.029778 302.939697,99.721298   C302.939697,102.830795 302.939575,104.643852 302.939697,106.456909   C302.940796,124.123299 302.985992,141.789871 302.914185,159.455948   C302.894531,164.288498 304.679260,167.940231 309.151733,169.874344   C316.132782,172.893265 322.951050,167.710175 322.972076,159.267670   C323.040558,131.768265 322.974792,104.268555 323.020142,76.769058   C323.028351,71.809616 321.373871,67.958527 316.603271,65.961327   C311.949707,64.013100 308.193146,65.734909 304.879974,69.055389   C296.168793,77.785866 287.446930,86.505730 278.229401,95.729561  M415.996979,265.500000   C415.996490,248.851746 415.970123,232.203430 416.011230,215.555283   C416.023499,210.590347 414.257050,206.798264 409.468323,204.852539   C404.780243,202.947678 401.071869,204.768158 397.783722,208.068161   C392.143280,213.728912 386.490387,219.377228 380.846405,225.034424   C375.320282,230.573486 369.660492,235.987900 364.321503,241.701950   C360.445160,245.850616 360.758057,251.943924 364.564972,255.663284   C368.256165,259.269531 373.953186,259.456390 378.186676,255.962021   C379.977417,254.483932 381.554138,252.744095 383.206665,251.101608   C387.141541,247.190659 391.063599,243.266800 395.938110,238.402985   C395.938110,241.489990 395.938080,243.099686 395.938110,244.709366   C395.938568,262.356537 395.917999,280.003754 395.949646,297.650848   C395.962708,304.931702 399.779236,309.514801 405.774963,309.622101   C411.951813,309.732605 415.959808,305.010864 415.986938,297.465759   C416.024048,287.143951 415.996704,276.821930 415.996979,265.500000  M240.980408,367.502197   C240.969696,362.673065 241.097992,357.838440 240.906174,353.016510   C240.740082,348.841461 238.589386,345.751862 234.711212,344.108398   C231.005142,342.537842 227.311798,342.996460 224.474655,345.785858   C212.601807,357.458893 200.784393,369.192566 189.163376,381.115234   C185.369064,385.008057 185.789551,391.001099 189.392715,394.684357   C193.195801,398.571991 199.063416,398.882690 203.331726,394.966766   C208.235458,390.467804 212.799164,385.599335 217.549255,380.930725   C218.399948,380.094666 219.438644,379.449890 220.927628,378.303162   C220.927628,380.779236 220.927536,382.432434 220.927643,384.085632   C220.928833,401.903717 220.976501,419.721985 220.899429,437.539703   C220.879532,442.142273 222.473450,445.714081 226.635483,447.777740   C233.629791,451.245789 240.916473,446.049652 240.948349,437.442169   C241.033493,414.462158 240.979248,391.481628 240.980408,367.502197  z" id="path150"/>
<path fill="#010201" opacity="1.000000" stroke="none" d=" M387.267120,343.283447   C407.808838,343.748383 421.533051,357.427856 421.755280,377.426147   C421.897858,390.255615 422.025299,403.094543 421.701874,415.917664   C421.250916,433.796234 408.346283,447.367523 390.959198,448.792297   C374.875122,450.110260 359.785858,438.649292 356.506836,422.308533   C355.762665,418.600006 355.907745,414.686523 355.880829,410.865692   C355.805817,400.201324 355.837738,389.536041 355.859375,378.871185   C355.900513,358.602478 366.684204,346.234436 387.267120,343.283447  M375.916107,391.500702   C375.924866,399.659302 375.802979,407.820740 375.981934,415.975616   C376.137482,423.064117 381.374023,428.369995 388.172363,428.742615   C394.617615,429.095856 400.994843,424.368103 401.239899,417.579224   C401.755646,403.290314 401.760468,388.958252 401.267914,374.668304   C401.031616,367.812408 394.836090,363.148407 388.303070,363.413208   C381.447998,363.691040 376.228302,368.920532 375.976379,376.016846   C375.805115,380.839600 375.925903,385.672729 375.916107,391.500702  z" id="path152"/>
<path fill="#010201" opacity="1.000000" stroke="none" d=" M305.444305,343.469055   C323.808777,346.383881 334.942963,359.142120 335.068146,377.168793   C335.156097,389.833221 335.168945,402.499451 335.065582,415.163666   C334.910309,434.191559 320.486450,448.896667 302.154144,448.868347   C284.028198,448.840332 269.489075,434.307983 269.192230,415.613098   C268.985901,402.618073 268.986206,389.614502 269.189697,376.619385   C269.503174,356.602722 284.948059,342.401184 305.444305,343.469055  M314.965546,375.088654   C313.148041,367.222168 307.989166,362.874481 301.176025,363.467468   C294.054504,364.087250 289.343842,369.483368 289.256165,377.598145   C289.124756,389.759949 289.144104,401.924805 289.244324,414.087189   C289.316376,422.829376 294.730072,428.810822 302.238190,428.760101   C309.851715,428.708649 314.999298,422.815857 315.024689,413.971039   C315.061066,401.308167 315.018921,388.645081 314.965546,375.088654  z" id="path154"/>
<path fill="#010201" opacity="1.000000" stroke="none" d=" M222.343597,169.535004   C201.185425,175.193436 179.687469,158.812729 180.742538,135.444122   C181.289795,123.323067 180.760773,111.156387 180.860535,99.011490   C181.017578,79.891022 195.167023,65.253532 213.474899,65.130013   C231.796967,65.006401 246.322250,79.429306 246.706573,98.515007   C246.967804,111.487282 246.951599,124.472771 246.705704,137.445648   C246.410339,153.028885 237.557938,164.580444 222.343597,169.535004  M200.902496,100.692154   C200.902664,112.351913 200.875992,124.011757 200.911667,135.671402   C200.939224,144.674637 205.832092,150.441025 213.485504,150.606689   C221.069000,150.770844 226.533249,144.933563 226.633621,136.137329   C226.772354,123.979469 226.830444,111.815086 226.551483,99.662025   C226.482376,96.651985 225.548813,93.338402 224.016373,90.755409   C221.180893,85.976135 215.320084,84.280769 209.998047,85.903313   C204.070831,87.710373 201.170425,92.127747 200.902496,100.692154  z" id="path156"/>
<path fill="#010201" opacity="1.000000" stroke="none" d=" M421.787659,110.004707   C421.777863,119.664604 422.014008,128.833862 421.705963,137.984802   C421.103760,155.872742 408.427246,169.115280 390.793945,170.668167   C375.106506,172.049698 360.084473,160.638092 356.552368,144.543869   C356.057709,142.289948 355.902344,139.923584 355.891174,137.607819   C355.828613,124.616051 355.757477,111.622887 355.880890,98.632019   C356.057434,80.049454 369.960785,65.604485 387.931091,65.136368   C406.029541,64.664917 420.783875,78.760567 421.714874,97.515213   C421.912842,101.503448 421.772278,105.508484 421.787659,110.004707  M375.916016,105.535858   C375.916443,115.693306 375.881561,125.850922 375.927979,136.008163   C375.968323,144.830826 381.155182,150.641541 388.833618,150.592728   C396.253418,150.545563 401.484863,144.853867 401.659149,136.314316   C401.812042,128.824203 401.725067,121.328445 401.688904,113.835442   C401.661591,108.177910 401.906616,102.487160 401.381042,96.871971   C400.717896,89.786613 394.750580,84.868240 388.134399,85.257179   C381.326538,85.657387 376.253235,90.959816 375.953094,98.058914   C375.861725,100.220016 375.924072,102.387611 375.916016,105.535858  z" id="path158"/>
<path fill="#010201" opacity="1.000000" stroke="none" d=" M233.757294,302.798126   C222.413696,310.799072 210.614197,312.045532 198.645981,305.834015   C186.689438,299.628479 180.824966,289.319305 180.839417,275.765472   C180.852890,263.116852 180.754807,250.467499 180.863495,237.819824   C181.025864,218.927414 195.003906,204.380890 213.120850,204.085846   C231.499588,203.786514 246.220596,218.061600 246.689240,237.113327   C247.012451,250.253174 246.898773,263.409546 246.704697,276.554474   C246.548813,287.111633 242.348495,295.889954 233.757294,302.798126  M215.112701,289.364777   C222.699570,287.721802 226.456070,283.675415 226.593124,275.969635   C226.817719,263.341522 226.804504,250.704269 226.607742,238.075287   C226.477646,229.726105 220.800629,223.989075 213.448593,224.171310   C206.001511,224.355896 200.959320,230.091888 200.919373,238.613998   C200.862503,250.747253 200.864594,262.881134 200.917267,275.014404   C200.957291,284.236481 205.099625,288.630035 215.112701,289.364777  z" id="path160"/>
<path fill="#010201" opacity="1.000000" stroke="none" d=" M145.701752,211.246490   C154.394623,218.595673 158.330856,227.655823 158.181122,238.691010   C158.014053,251.004471 158.216766,263.322479 158.124237,275.637543   C157.978256,295.070709 143.674683,309.775787 125.140953,309.678192   C106.866280,309.581909 92.522865,294.963531 92.252289,275.901062   C92.075150,263.421417 92.141052,250.936630 92.237000,238.455215   C92.341537,224.856003 97.957413,214.218246 110.194481,207.897049   C122.423897,201.579758 134.294266,203.044052 145.701752,211.246490  M138.083588,269.462830   C138.082733,259.139771 138.128708,248.816452 138.066467,238.493759   C138.015350,230.019226 132.841049,224.250427 125.373680,224.167572   C118.014542,224.085907 112.485237,229.868378 112.354538,238.267471   C112.180992,249.420349 112.286118,260.577942 112.318199,271.733368   C112.324883,274.056915 112.313408,276.416901 112.693939,278.696045   C113.797478,285.305603 119.171669,289.678223 125.646797,289.460175   C132.334335,289.234985 137.537598,284.222870 138.002701,277.436066   C138.161758,275.114960 138.064011,272.776276 138.083588,269.462830  z" id="path162"/>
<path fill="#010201" opacity="1.000000" stroke="none" d=" M335.089233,265.997406   C334.936401,271.817444 335.413879,277.247345 334.514130,282.438568   C331.659821,298.907166 316.673798,310.701477 300.676971,309.619141   C283.291199,308.442871 269.947571,295.363892 269.307281,277.964111   C268.793152,263.992401 268.810028,249.973877 269.286163,235.999802   C269.911285,217.652100 284.977966,203.695953 302.939880,204.091324   C320.705872,204.482376 334.799652,218.864105 335.054169,237.016754   C335.187256,246.508804 335.085144,256.004181 335.089233,265.997406  M313.950287,231.972519   C310.119446,225.565140 305.147675,223.086456 299.205383,224.621445   C292.944427,226.238770 289.323029,231.026184 289.254730,238.372055   C289.138885,250.833801 289.086395,263.299561 289.276550,275.759552   C289.403839,284.098328 295.067352,289.703369 302.558197,289.464966   C309.937439,289.230072 314.968018,283.691559 315.015442,275.501343   C315.087646,263.038910 315.066711,250.575546 314.996246,238.113068   C314.986115,236.321182 314.478668,234.532120 313.950287,231.972519  z" id="path164"/>
<path fill="#010302" opacity="1.000000" stroke="none" d=" M132.347794,401.999847   C132.347809,394.102142 132.347809,386.704437 132.347809,379.306732   C131.821030,379.019531 131.294266,378.732330 130.767487,378.445129   C125.899521,383.569855 121.305817,389.003510 116.039467,393.679565   C113.665184,395.787750 109.711601,397.773499 106.908302,397.291626   C103.910072,396.776215 100.736122,393.746918 98.889236,390.980225   C96.665955,387.649689 98.027649,383.720886 100.776794,380.929199   C112.338158,369.188538 123.983978,357.529327 135.727646,345.971161   C138.694366,343.051270 142.888824,341.940735 146.261642,344.327148   C148.932129,346.216644 150.506317,349.752899 152.304703,352.717224   C152.831528,353.585602 152.494385,354.999207 152.494690,356.162903   C152.501419,382.628845 152.505249,409.094788 152.487701,435.560730   C152.486603,437.220062 152.459732,438.905487 152.180878,440.533600   C151.344421,445.417450 147.198303,448.875214 142.395279,448.846558   C137.832642,448.819336 133.761093,445.546814 132.795517,440.910828   C132.426453,439.138824 132.372711,437.278229 132.366562,435.457367   C132.329514,424.471619 132.347916,413.485718 132.347794,401.999847  z" id="path166"/>
<path fill="#010302" opacity="1.000000" stroke="none" d=" M98.050560,109.908356   C99.417213,106.769119 100.237694,103.487167 102.272575,101.375397   C112.785622,90.465187 123.622360,79.867302 134.317474,69.131844   C137.625076,65.811760 141.308090,64.063072 146.002014,65.911743   C150.889053,67.836472 152.494873,71.745781 152.493546,76.647507   C152.486115,104.124191 152.537735,131.601013 152.457825,159.077469   C152.436813,166.302963 148.238480,170.868195 142.246475,170.720917   C136.251984,170.573578 132.402161,166.038391 132.369553,158.679764   C132.292816,141.361450 132.342300,124.042580 132.340759,106.723930   C132.340607,104.933235 132.340744,103.142532 132.340744,99.806061   C128.813629,103.208870 126.268539,105.630531 123.762245,108.091698   C121.267212,110.541801 118.844368,113.065933 116.331650,115.497444   C108.941856,122.648422 100.630424,120.275490 98.050560,109.908356  z" id="path168"/>
<path fill="#010201" opacity="1.000000" stroke="none" d=" M278.479370,95.479691   C287.446930,86.505730 296.168793,77.785866 304.879974,69.055389   C308.193146,65.734909 311.949707,64.013100 316.603271,65.961327   C321.373871,67.958527 323.028351,71.809616 323.020142,76.769058   C322.974792,104.268555 323.040558,131.768265 322.972076,159.267670   C322.951050,167.710175 316.132782,172.893265 309.151733,169.874344   C304.679260,167.940231 302.894531,164.288498 302.914185,159.455948   C302.985992,141.789871 302.940796,124.123299 302.939697,106.456909   C302.939575,104.643852 302.939697,102.830795 302.939697,99.721298   C299.521942,103.029778 296.857666,105.583931 294.221771,108.167099   C291.246460,111.082916 288.433380,114.181213 285.302643,116.917435   C280.985016,120.690994 275.065979,120.381798 271.333801,116.484322   C267.787811,112.781265 267.648987,106.985916 271.227356,102.863510   C273.407471,100.351944 275.885284,98.098785 278.479370,95.479691  z" id="path170"/>
<path fill="#010201" opacity="1.000000" stroke="none" d=" M415.996979,266.000000   C415.996704,276.821930 416.024048,287.143951 415.986938,297.465759   C415.959808,305.010864 411.951813,309.732605 405.774963,309.622101   C399.779236,309.514801 395.962708,304.931702 395.949646,297.650848   C395.917999,280.003754 395.938568,262.356537 395.938110,244.709366   C395.938080,243.099686 395.938110,241.489990 395.938110,238.402985   C391.063599,243.266800 387.141541,247.190659 383.206665,251.101608   C381.554138,252.744095 379.977417,254.483932 378.186676,255.962021   C373.953186,259.456390 368.256165,259.269531 364.564972,255.663284   C360.758057,251.943924 360.445160,245.850616 364.321503,241.701950   C369.660492,235.987900 375.320282,230.573486 380.846405,225.034424   C386.490387,219.377228 392.143280,213.728912 397.783722,208.068161   C401.071869,204.768158 404.780243,202.947678 409.468323,204.852539   C414.257050,206.798264 416.023499,210.590347 416.011230,215.555283   C415.970123,232.203430 415.996490,248.851746 415.996979,266.000000  z" id="path172"/>
<path fill="#000101" opacity="1.000000" stroke="none" d=" M240.980408,368.001770   C240.979248,391.481628 241.033493,414.462158 240.948349,437.442169   C240.916473,446.049652 233.629791,451.245789 226.635483,447.777740   C222.473450,445.714081 220.879532,442.142273 220.899429,437.539703   C220.976501,419.721985 220.928833,401.903717 220.927643,384.085632   C220.927536,382.432434 220.927628,380.779236 220.927628,378.303162   C219.438644,379.449890 218.399948,380.094666 217.549255,380.930725   C212.799164,385.599335 208.235458,390.467804 203.331726,394.966766   C199.063416,398.882690 193.195801,398.571991 189.392715,394.684357   C185.789551,391.001099 185.369064,385.008057 189.163376,381.115234   C200.784393,369.192566 212.601807,357.458893 224.474655,345.785858   C227.311798,342.996460 231.005142,342.537842 234.711212,344.108398   C238.589386,345.751862 240.740082,348.841461 240.906174,353.016510   C241.097992,357.838440 240.969696,362.673065 240.980408,368.001770  z" id="path174"/>
<path fill="#43C671" opacity="1.000000" stroke="none" d=" M375.916107,391.000977   C375.925903,385.672729 375.805115,380.839600 375.976379,376.016846   C376.228302,368.920532 381.447998,363.691040 388.303070,363.413208   C394.836090,363.148407 401.031616,367.812408 401.267914,374.668304   C401.760468,388.958252 401.755646,403.290314 401.239899,417.579224   C400.994843,424.368103 394.617615,429.095856 388.172363,428.742615   C381.374023,428.369995 376.137482,423.064117 375.981934,415.975616   C375.802979,407.820740 375.924866,399.659302 375.916107,391.000977  z" id="path176"/>
<path fill="#43C671" opacity="1.000000" stroke="none" d=" M314.987915,375.535370   C315.018921,388.645081 315.061066,401.308167 315.024689,413.971039   C314.999298,422.815857 309.851715,428.708649 302.238190,428.760101   C294.730072,428.810822 289.316376,422.829376 289.244324,414.087189   C289.144104,401.924805 289.124756,389.759949 289.256165,377.598145   C289.343842,369.483368 294.054504,364.087250 301.176025,363.467468   C307.989166,362.874481 313.148041,367.222168 314.987915,375.535370  z" id="path178"/>
<path fill="#43C571" opacity="1.000000" stroke="none" d=" M200.903046,100.223236   C201.170425,92.127747 204.070831,87.710373 209.998047,85.903313   C215.320084,84.280769 221.180893,85.976135 224.016373,90.755409   C225.548813,93.338402 226.482376,96.651985 226.551483,99.662025   C226.830444,111.815086 226.772354,123.979469 226.633621,136.137329   C226.533249,144.933563 221.069000,150.770844 213.485504,150.606689   C205.832092,150.441025 200.939224,144.674637 200.911667,135.671402   C200.875992,124.011757 200.902664,112.351913 200.903046,100.223236  z" id="path180"/>
<path fill="#43C671" opacity="1.000000" stroke="none" d=" M375.916016,105.044052   C375.924072,102.387611 375.861725,100.220016 375.953094,98.058914   C376.253235,90.959816 381.326538,85.657387 388.134399,85.257179   C394.750580,84.868240 400.717896,89.786613 401.381042,96.871971   C401.906616,102.487160 401.661591,108.177910 401.688904,113.835442   C401.725067,121.328445 401.812042,128.824203 401.659149,136.314316   C401.484863,144.853867 396.253418,150.545563 388.833618,150.592728   C381.155182,150.641541 375.968323,144.830826 375.927979,136.008163   C375.881561,125.850922 375.916443,115.693306 375.916016,105.044052  z" id="path182"/>
<path fill="#43C671" opacity="1.000000" stroke="none" d=" M214.733994,289.414948   C205.099625,288.630035 200.957291,284.236481 200.917267,275.014404   C200.864594,262.881134 200.862503,250.747253 200.919373,238.613998   C200.959320,230.091888 206.001511,224.355896 213.448593,224.171310   C220.800629,223.989075 226.477646,229.726105 226.607742,238.075287   C226.804504,250.704269 226.817719,263.341522 226.593124,275.969635   C226.456070,283.675415 222.699570,287.721802 214.733994,289.414948  z" id="path184"/>
<path fill="#43C671" opacity="1.000000" stroke="none" d=" M138.083588,269.954224   C138.064011,272.776276 138.161758,275.114960 138.002701,277.436066   C137.537598,284.222870 132.334335,289.234985 125.646797,289.460175   C119.171669,289.678223 113.797478,285.305603 112.693939,278.696045   C112.313408,276.416901 112.324883,274.056915 112.318199,271.733368   C112.286118,260.577942 112.180992,249.420349 112.354538,238.267471   C112.485237,229.868378 118.014542,224.085907 125.373680,224.167572   C132.841049,224.250427 138.015350,230.019226 138.066467,238.493759   C138.128708,248.816452 138.082733,259.139771 138.083588,269.954224  z" id="path186"/>
<path fill="#43C671" opacity="1.000000" stroke="none" d=" M314.075836,232.357147   C314.478668,234.532120 314.986115,236.321182 314.996246,238.113068   C315.066711,250.575546 315.087646,263.038910 315.015442,275.501343   C314.968018,283.691559 309.937439,289.230072 302.558197,289.464966   C295.067352,289.703369 289.403839,284.098328 289.276550,275.759552   C289.086395,263.299561 289.138885,250.833801 289.254730,238.372055   C289.323029,231.026184 292.944427,226.238770 299.205383,224.621445   C305.147675,223.086456 310.119446,225.565140 314.075836,232.357147  z" id="path188"/>
</svg>