<svg xmlns="http://www.w3.org/2000/svg" width="1353.857" height="628.143" version="1.0"><path d="m57.2 124.14 6.313 17.678-13.132 9.85 13.132 13.636-10.859 6.819 11.365 13.89-13.638 2.272 4.799 9.092 1233.143.252 11.617-9.596-14.9-4.798 11.87-8.587 6.566-13.89-15.658-4.292 8.587-13.89-10.86-4.546 5.556-14.142-1233.901.253z" style="opacity:1;fill:none;fill-rule:evenodd;stroke:#000;stroke-width:1px;stroke-linecap:butt;stroke-linejoin:miter;stroke-opacity:1"/><path d="m164.53 173.036.253 24.3M237.868 173.036l.253 24.3M311.205 173.036l.253 24.3M384.543 173.036l.253 24.3M457.62 176.964l.07 20.52M530.812 175.104l.078 22.368" style="opacity:1;fill:none;fill-rule:evenodd;stroke:#000;stroke-width:1;stroke-linecap:butt;stroke-linejoin:miter;stroke-opacity:1;stroke-miterlimit:4;stroke-dasharray:none"/><path d="m750.315 123.888.252 73.236" style="opacity:1;fill:none;fill-rule:evenodd;stroke:#000;stroke-width:1px;stroke-linecap:butt;stroke-linejoin:miter;stroke-opacity:1"/><path d="m823.594 172.477.087 24.977" style="opacity:1;fill:none;fill-rule:evenodd;stroke:#000;stroke-width:1;stroke-linecap:butt;stroke-linejoin:miter;stroke-opacity:1;stroke-miterlimit:4;stroke-dasharray:none"/><path d="m969.904 123.888.253 73.236M1043.101 123.888l.252 73.236" style="opacity:1;fill:none;fill-rule:evenodd;stroke:#000;stroke-width:1px;stroke-linecap:butt;stroke-linejoin:miter;stroke-opacity:1"/><path d="m1116.382 172.915.084 24.542M1189.583 175.98l.074 21.497" style="opacity:1;fill:none;fill-rule:evenodd;stroke:#000;stroke-width:1;stroke-linecap:butt;stroke-linejoin:miter;stroke-opacity:1;stroke-miterlimit:4;stroke-dasharray:none"/><path d="m1262.69 123.888.253 73.236" style="opacity:1;fill:none;fill-rule:evenodd;stroke:#000;stroke-width:1px;stroke-linecap:butt;stroke-linejoin:miter;stroke-opacity:1"/><text xml:space="preserve" x="67.742" y="175.237" style="font-size:25.01857567px;font-style:normal;font-weight:400;opacity:1;fill:#000;fill-opacity:1;stroke:none;stroke-width:1px;stroke-linecap:butt;stroke-linejoin:miter;stroke-opacity:1;font-family:Gill Sans MT" transform="scale(1.04244 .95929)"><tspan x="67.742" y="175.237" style="font-size:33.35808563px;font-family:Verdana">Code number of a Turing machine</tspan></text><text xml:space="preserve" x="733.604" y="174.226" style="font-size:25.01854897px;font-style:normal;font-weight:400;opacity:1;fill:#000;fill-opacity:1;stroke:none;stroke-width:1px;stroke-linecap:butt;stroke-linejoin:miter;stroke-opacity:1;font-family:Gill Sans MT" transform="scale(1.04244 .95929)"><tspan x="733.604" y="174.226" style="font-size:33.35805893px;font-family:Verdana">Input to</tspan></text><text xml:space="preserve" x="1058.151" y="175.258" style="font-size:25.01856422px;font-style:normal;font-weight:400;opacity:1;fill:#000;fill-opacity:1;stroke:none;stroke-width:1px;stroke-linecap:butt;stroke-linejoin:miter;stroke-opacity:1;font-family:Gill Sans MT" transform="scale(1.04244 .95929)"><tspan x="1058.151" y="175.258" style="font-size:33.35807419px;font-family:Verdana">Output</tspan></text><path d="M968.73 165.052c0 47.862-18.786 86.661-41.961 86.661-23.175 0-41.962-38.8-41.962-86.661 0-47.862 18.787-86.661 41.962-86.661 23.175 0 41.962 38.8 41.962 86.66zM1185.383 165.052c0 47.862-18.787 86.661-41.962 86.661-23.175 0-41.962-38.8-41.962-86.661 0-47.862 18.787-86.661 41.962-86.661 23.175 0 41.962 38.8 41.962 86.66z" style="opacity:1;fill:none;fill-opacity:.53947371;fill-rule:nonzero;stroke:#000;stroke-width:1;stroke-linecap:butt;stroke-linejoin:bevel;stroke-miterlimit:4;stroke-dasharray:6,2;stroke-dashoffset:0;stroke-opacity:1"/><text xml:space="preserve" x="104.535" y="113.125" style="font-size:24px;font-style:normal;font-weight:400;opacity:1;fill:#000;fill-opacity:1;stroke:none;stroke-width:1px;stroke-linecap:butt;stroke-linejoin:miter;stroke-opacity:1;font-family:Gill Sans MT"><tspan x="104.535" y="113.125">TAPE</tspan></text><text xml:space="preserve" x="461.678" y="59.554" style="font-size:24px;font-style:normal;font-weight:400;opacity:1;fill:#000;fill-opacity:1;stroke:none;stroke-width:1px;stroke-linecap:butt;stroke-linejoin:miter;stroke-opacity:1;font-family:Gill Sans MT"><tspan x="461.678" y="59.554">HEAD</tspan></text><g style="opacity:1"><path d="M461.108 173.571h73.571" style="fill:none;fill-rule:evenodd;stroke:#000;stroke-width:1px;stroke-linecap:butt;stroke-linejoin:miter;stroke-opacity:1" transform="translate(-1.894 -103.303)"/><path d="m267.69-378.571 36.68-21.178v42.355l-36.68-21.177z" style="fill:#000;fill-opacity:1;fill-rule:nonzero;stroke:none;stroke-width:1;stroke-linecap:butt;stroke-linejoin:bevel;stroke-miterlimit:4;stroke-dasharray:6,2;stroke-dashoffset:0;stroke-opacity:1" transform="translate(352.025 208.878) scale(.36711)"/><path d="m267.69-378.571 36.68-21.178v42.355l-36.68-21.177z" style="fill:#000;fill-opacity:1;fill-rule:nonzero;stroke:none;stroke-width:1;stroke-linecap:butt;stroke-linejoin:bevel;stroke-miterlimit:4;stroke-dasharray:6,2;stroke-dashoffset:0;stroke-opacity:1" transform="matrix(-.36711 0 0 .36711 639.89 208.878)"/></g><g style="opacity:1"><path d="M454.286 173.571h73.571" style="fill:none;fill-rule:evenodd;stroke:#000;stroke-width:1px;stroke-linecap:butt;stroke-linejoin:miter;stroke-opacity:1" transform="translate(435.74 -103.303)"/><path d="m267.69-378.571 36.68-21.178v42.355l-36.68-21.177z" style="opacity:1;fill:#000;fill-opacity:1;fill-rule:nonzero;stroke:none;stroke-width:1;stroke-linecap:butt;stroke-linejoin:bevel;stroke-miterlimit:4;stroke-dasharray:6,2;stroke-dashoffset:0;stroke-opacity:1" transform="translate(782.836 208.878) scale(.36711)"/><path d="m267.69-378.571 36.68-21.178v42.355l-36.68-21.177z" style="opacity:1;fill:#000;fill-opacity:1;fill-rule:nonzero;stroke:none;stroke-width:1;stroke-linecap:butt;stroke-linejoin:bevel;stroke-miterlimit:4;stroke-dasharray:6,2;stroke-dashoffset:0;stroke-opacity:1" transform="matrix(-.36711 0 0 .36711 1070.702 208.878)"/></g><g style="opacity:1"><path d="M454.286 173.571h73.571" style="fill:none;fill-rule:evenodd;stroke:#000;stroke-width:1px;stroke-linecap:butt;stroke-linejoin:miter;stroke-opacity:1" transform="translate(652.392 -103.303)"/><path d="m267.69-378.571 36.68-21.178v42.355l-36.68-21.177z" style="opacity:1;fill:#000;fill-opacity:1;fill-rule:nonzero;stroke:none;stroke-width:1;stroke-linecap:butt;stroke-linejoin:bevel;stroke-miterlimit:4;stroke-dasharray:6,2;stroke-dashoffset:0;stroke-opacity:1" transform="translate(999.488 208.878) scale(.36711)"/><path d="m267.69-378.571 36.68-21.178v42.355l-36.68-21.177z" style="opacity:1;fill:#000;fill-opacity:1;fill-rule:nonzero;stroke:none;stroke-width:1;stroke-linecap:butt;stroke-linejoin:bevel;stroke-miterlimit:4;stroke-dasharray:6,2;stroke-dashoffset:0;stroke-opacity:1" transform="matrix(-.36711 0 0 .36711 1287.354 208.878)"/></g><path d="M255.963 290.268h909.286v294.286H255.963z" style="opacity:1;fill:none;fill-opacity:1;fill-rule:nonzero;stroke:#000;stroke-width:1;stroke-linecap:butt;stroke-linejoin:bevel;stroke-miterlimit:4;stroke-dasharray:none;stroke-dashoffset:0;stroke-opacity:1"/><text xml:space="preserve" x="267.181" y="578.84" style="font-size:24px;font-style:normal;font-weight:400;opacity:1;fill:#000;fill-opacity:1;stroke:none;stroke-width:1px;stroke-linecap:butt;stroke-linejoin:miter;stroke-opacity:1;font-family:Gill Sans MT"><tspan x="267.181" y="578.84">Control unit</tspan></text><text xml:space="preserve" x="266.678" y="422.411" style="font-size:24px;font-style:normal;font-weight:400;opacity:1;fill:#000;fill-opacity:1;stroke:none;stroke-width:1px;stroke-linecap:butt;stroke-linejoin:miter;stroke-opacity:1;font-family:Gill Sans MT"><tspan x="266.678" y="422.411">Print Sk, Erase</tspan></text><text xml:space="preserve" x="266.549" y="450.268" style="font-size:24px;font-style:normal;font-weight:400;opacity:1;fill:#000;fill-opacity:1;stroke:none;stroke-width:1px;stroke-linecap:butt;stroke-linejoin:miter;stroke-opacity:1;font-family:Gill Sans MT"><tspan x="266.549" y="450.268">Left, Right</tspan></text><text xml:space="preserve" x="395.963" y="321.697" style="font-size:24px;font-style:normal;font-weight:400;opacity:1;fill:#000;fill-opacity:1;stroke:none;stroke-width:1px;stroke-linecap:butt;stroke-linejoin:miter;stroke-opacity:1;font-family:Gill Sans MT"><tspan x="395.963" y="321.697" style="text-align:center;text-anchor:middle">Scanned</tspan><tspan x="395.963" y="351.697" style="text-align:center;text-anchor:middle">symbol</tspan></text><path d="M458.82 300.982h692.857v271.429H458.82z" style="opacity:1;fill:none;fill-opacity:1;fill-rule:nonzero;stroke:#000;stroke-width:1;stroke-linecap:butt;stroke-linejoin:bevel;stroke-miterlimit:4;stroke-dasharray:none;stroke-dashoffset:0;stroke-opacity:1"/><text xml:space="preserve" x="491.754" y="385.268" style="font-size:24px;font-style:normal;font-weight:400;opacity:1;fill:#000;fill-opacity:1;stroke:none;stroke-width:1px;stroke-linecap:butt;stroke-linejoin:miter;stroke-opacity:1;font-family:Gill Sans MT"><tspan x="491.754" y="385.268">Table of <tspan style="font-weight:700">U</tspan></tspan></text><g style="opacity:1"><text xml:space="preserve" x="661.429" y="522.029" style="font-size:24px;font-style:normal;font-weight:400;fill:#000;fill-opacity:1;stroke:none;stroke-width:1px;stroke-linecap:butt;stroke-linejoin:miter;stroke-opacity:1;font-family:Gill Sans MT" transform="translate(-1.894 -80.446)"><tspan x="661.429" y="522.029" style="font-size:18px;text-align:center;text-anchor:middle;font-family:Times New Roman">1</tspan><tspan x="661.429" y="544.529" style="font-size:18px;text-align:center;text-anchor:middle;font-family:Times New Roman">1</tspan><tspan x="661.429" y="567.043" style="font-size:18px;font-style:italic;text-align:center;text-anchor:middle;font-family:Times New Roman">X</tspan><tspan x="661.429" y="589.529" style="font-size:18px;text-align:center;text-anchor:middle;font-family:Times New Roman">1</tspan><tspan x="661.429" y="612.029" style="font-size:18px;text-align:center;text-anchor:middle;font-family:Times New Roman">1</tspan></text><text xml:space="preserve" x="706.977" y="522.143" style="font-size:24px;font-style:normal;font-weight:400;fill:#000;fill-opacity:1;stroke:none;stroke-width:1px;stroke-linecap:butt;stroke-linejoin:miter;stroke-opacity:1;font-family:Gill Sans MT" transform="translate(-1.894 -80.446)"><tspan x="706.977" y="522.143" style="font-size:18px;text-align:center;text-anchor:middle;font-family:Gill Sans MT">R</tspan><tspan x="706.977" y="544.643" style="font-size:18px;text-align:center;text-anchor:middle;font-family:Gill Sans MT">R</tspan><tspan x="706.977" y="567.143" style="font-size:18px;text-align:center;text-anchor:middle;font-family:Gill Sans MT">R</tspan><tspan x="706.977" y="589.643" style="font-size:18px;text-align:center;text-anchor:middle;font-family:Gill Sans MT">L</tspan><tspan x="706.977" y="612.143" style="font-size:18px;text-align:center;text-anchor:middle;font-family:Gill Sans MT">L</tspan></text><text xml:space="preserve" x="753.571" y="522.055" style="font-size:24px;font-style:normal;font-weight:400;fill:#000;fill-opacity:1;stroke:none;stroke-width:1px;stroke-linecap:butt;stroke-linejoin:miter;stroke-opacity:1;font-family:Gill Sans MT" transform="translate(-1.894 -80.446)"><tspan x="753.571" y="522.055" style="font-size:18px;font-style:italic;text-align:center;text-anchor:middle;font-family:Times New Roman">A</tspan><tspan x="753.571" y="544.555" style="font-size:18px;font-style:italic;text-align:center;text-anchor:middle;font-family:Times New Roman">B</tspan><tspan x="753.571" y="567.055" style="font-size:18px;font-style:italic;text-align:center;text-anchor:middle;font-family:Times New Roman">C</tspan><tspan x="753.571" y="589.555" style="font-size:18px;font-style:italic;text-align:center;text-anchor:middle;font-family:Times New Roman">D</tspan><tspan x="753.571" y="612.055" style="font-size:18px;font-style:italic;text-align:center;text-anchor:middle;font-family:Times New Roman">E</tspan></text></g><g style="opacity:1"><text xml:space="preserve" x="661.429" y="522.029" style="font-size:24px;font-style:normal;font-weight:400;fill:#000;fill-opacity:1;stroke:none;stroke-width:1px;stroke-linecap:butt;stroke-linejoin:miter;stroke-opacity:1;font-family:Gill Sans MT" transform="translate(153.648 -79.732)"><tspan x="661.429" y="522.029" style="font-size:18px;text-align:center;text-anchor:middle;font-family:Times New Roman">1</tspan><tspan x="661.429" y="544.529" style="font-size:18px;text-align:center;text-anchor:middle;font-family:Times New Roman">0</tspan><tspan x="661.429" y="567.043" style="font-size:18px;font-style:italic;text-align:center;text-anchor:middle;font-family:Times New Roman">E</tspan><tspan x="661.429" y="589.543" style="font-size:18px;font-style:italic;text-align:center;text-anchor:middle;font-family:Times New Roman">E</tspan><tspan x="661.429" y="612.029" style="font-size:18px;text-align:center;text-anchor:middle;font-family:Times New Roman">1</tspan></text><text xml:space="preserve" x="706.977" y="522.143" style="font-size:24px;font-style:normal;font-weight:400;fill:#000;fill-opacity:1;stroke:none;stroke-width:1px;stroke-linecap:butt;stroke-linejoin:miter;stroke-opacity:1;font-family:Gill Sans MT" transform="translate(153.648 -79.732)"><tspan x="706.977" y="522.143" style="font-size:18px;text-align:center;text-anchor:middle;font-family:Gill Sans MT">R</tspan><tspan x="706.977" y="544.643" style="font-size:18px;text-align:center;text-anchor:middle;font-family:Gill Sans MT">L</tspan><tspan x="706.977" y="567.143" style="font-size:18px;text-align:center;text-anchor:middle;font-family:Gill Sans MT">R</tspan><tspan x="706.977" y="589.643" style="font-size:18px;text-align:center;text-anchor:middle;font-family:Gill Sans MT">N</tspan><tspan x="706.977" y="612.143" style="font-size:18px;text-align:center;text-anchor:middle;font-family:Gill Sans MT">R</tspan></text><text xml:space="preserve" x="753.571" y="522.055" style="font-size:24px;font-style:normal;font-weight:400;fill:#000;fill-opacity:1;stroke:none;stroke-width:1px;stroke-linecap:butt;stroke-linejoin:miter;stroke-opacity:1;font-family:Gill Sans MT" transform="translate(153.648 -79.732)"><tspan x="753.571" y="522.055" style="font-size:18px;font-style:italic;text-align:center;text-anchor:middle;font-family:Times New Roman">P</tspan><tspan x="753.571" y="544.555" style="font-size:18px;font-style:italic;text-align:center;text-anchor:middle;font-family:Times New Roman">K</tspan><tspan x="753.571" y="567.055" style="font-size:18px;font-style:italic;text-align:center;text-anchor:middle;font-family:Times New Roman">H</tspan><tspan x="753.571" y="589.555" style="font-size:18px;font-style:italic;text-align:center;text-anchor:middle;font-family:Times New Roman">U</tspan><tspan x="753.571" y="612.055" style="font-size:18px;font-style:italic;text-align:center;text-anchor:middle;font-family:Times New Roman">S</tspan></text></g><g style="opacity:1"><text xml:space="preserve" x="661.429" y="522.029" style="font-size:24px;font-style:normal;font-weight:400;fill:#000;fill-opacity:1;stroke:none;stroke-width:1px;stroke-linecap:butt;stroke-linejoin:miter;stroke-opacity:1;font-family:Gill Sans MT" transform="translate(348.82 -80.446)"><tspan x="661.429" y="522.029" style="font-size:18px;font-style:italic;text-align:center;text-anchor:middle;font-family:Times New Roman">P</tspan><tspan x="661.429" y="544.514" style="font-size:18px;text-align:center;text-anchor:middle;font-family:Times New Roman">1</tspan><tspan x="661.429" y="567.029" style="font-size:18px;font-style:italic;text-align:center;text-anchor:middle;font-family:Times New Roman">X</tspan><tspan x="661.429" y="589.514" style="font-size:18px;text-align:center;text-anchor:middle;font-family:Times New Roman">0</tspan><tspan x="661.429" y="612.029" style="font-size:18px;font-style:italic;text-align:center;text-anchor:middle;font-family:Times New Roman">Y</tspan></text><text xml:space="preserve" x="706.977" y="522.143" style="font-size:24px;font-style:normal;font-weight:400;fill:#000;fill-opacity:1;stroke:none;stroke-width:1px;stroke-linecap:butt;stroke-linejoin:miter;stroke-opacity:1;font-family:Gill Sans MT" transform="translate(348.82 -80.446)"><tspan x="706.977" y="522.143" style="font-size:18px;text-align:center;text-anchor:middle;font-family:Gill Sans MT">R</tspan><tspan x="706.977" y="544.643" style="font-size:18px;text-align:center;text-anchor:middle;font-family:Gill Sans MT">L</tspan><tspan x="706.977" y="567.143" style="font-size:18px;text-align:center;text-anchor:middle;font-family:Gill Sans MT">N</tspan><tspan x="706.977" y="589.643" style="font-size:18px;text-align:center;text-anchor:middle;font-family:Gill Sans MT">R</tspan><tspan x="706.977" y="612.143" style="font-size:18px;text-align:center;text-anchor:middle;font-family:Gill Sans MT">R</tspan></text><text xml:space="preserve" x="753.571" y="522.055" style="font-size:24px;font-style:normal;font-weight:400;fill:#000;fill-opacity:1;stroke:none;stroke-width:1px;stroke-linecap:butt;stroke-linejoin:miter;stroke-opacity:1;font-family:Gill Sans MT" transform="translate(348.82 -80.446)"><tspan x="753.571" y="522.055" style="font-size:18px;font-style:italic;text-align:center;text-anchor:middle;font-family:Times New Roman">M</tspan><tspan x="753.571" y="544.555" style="font-size:18px;font-style:italic;text-align:center;text-anchor:middle;font-family:Times New Roman">N</tspan><tspan x="753.571" y="567.055" style="font-size:18px;font-style:italic;text-align:center;text-anchor:middle;font-family:Times New Roman">O</tspan><tspan x="753.571" y="589.555" style="font-size:18px;font-style:italic;text-align:center;text-anchor:middle;font-family:Times New Roman">P</tspan><tspan x="753.571" y="612.055" style="font-size:18px;font-style:italic;text-align:center;text-anchor:middle;font-family:Times New Roman">H</tspan></text></g><path d="M636.663 317.397h302.885v237.171H636.663z" style="opacity:1;fill:none;fill-opacity:1;fill-rule:nonzero;stroke:#000;stroke-width:.97186446;stroke-linecap:butt;stroke-linejoin:bevel;stroke-miterlimit:4;stroke-dasharray:none;stroke-dashoffset:0;stroke-opacity:1"/><path d="M982.234 317.254h150.315v237.458H982.234z" style="opacity:1;fill:none;fill-opacity:1;fill-rule:nonzero;stroke:#000;stroke-width:.68506235;stroke-linecap:butt;stroke-linejoin:bevel;stroke-miterlimit:4;stroke-dasharray:none;stroke-dashoffset:0;stroke-opacity:1"/><text xml:space="preserve" x="645.249" y="336.697" style="font-size:24px;font-style:normal;font-weight:400;opacity:1;fill:#000;fill-opacity:1;stroke:none;stroke-width:1px;stroke-linecap:butt;stroke-linejoin:miter;stroke-opacity:1;font-family:Gill Sans MT"><tspan x="645.249" y="336.697" style="font-size:20px">Current</tspan><tspan x="645.249" y="361.907" style="font-size:20px">state <tspan style="font-style:italic;font-family:Times New Roman">A</tspan>:</tspan></text><text xml:space="preserve" x="793.106" y="336.697" style="font-size:24px;font-style:normal;font-weight:400;opacity:1;fill:#000;fill-opacity:1;stroke:none;stroke-width:1px;stroke-linecap:butt;stroke-linejoin:miter;stroke-opacity:1;font-family:Gill Sans MT"><tspan x="793.106" y="336.697" style="font-size:20px">Current</tspan><tspan x="793.106" y="361.907" style="font-size:20px">state <tspan style="font-style:italic;font-family:Times New Roman">B</tspan>:</tspan></text><text xml:space="preserve" x="989.535" y="336.697" style="font-size:24px;font-style:normal;font-weight:400;opacity:1;fill:#000;fill-opacity:1;stroke:none;stroke-width:1px;stroke-linecap:butt;stroke-linejoin:miter;stroke-opacity:1;font-family:Gill Sans MT"><tspan x="989.535" y="336.697" style="font-size:20px">Current</tspan><tspan x="989.535" y="361.907" style="font-size:20px">state <tspan style="font-style:italic;font-family:Times New Roman">V</tspan>:</tspan></text><path d="M784.535 317.054V554.91" style="opacity:1;fill:none;fill-rule:evenodd;stroke:#000;stroke-width:1px;stroke-linecap:butt;stroke-linejoin:miter;stroke-opacity:1"/><text xml:space="preserve" x="960.625" y="437.768" style="font-size:24px;font-style:normal;font-weight:400;opacity:1;fill:#000;fill-opacity:1;stroke:none;stroke-width:1px;stroke-linecap:butt;stroke-linejoin:miter;stroke-opacity:1;font-family:Gill Sans MT"><tspan x="960.625" y="437.768" style="font-size:18px;text-align:center;text-anchor:middle;font-family:Gill Sans MT">. . .</tspan><tspan x="960.625" y="460.268" style="font-size:18px;text-align:center;text-anchor:middle;font-family:Gill Sans MT">. . .</tspan><tspan x="960.625" y="482.768" style="font-size:18px;text-align:center;text-anchor:middle;font-family:Gill Sans MT">. . .</tspan><tspan x="960.625" y="505.268" style="font-size:18px;text-align:center;text-anchor:middle;font-family:Gill Sans MT">. . .</tspan><tspan x="960.625" y="527.768" style="font-size:18px;text-align:center;text-anchor:middle;font-family:Gill Sans MT">. . .</tspan></text><g style="opacity:1"><text xml:space="preserve" x="662.143" y="497.857" style="font-size:24px;font-style:normal;font-weight:400;fill:#000;fill-opacity:1;stroke:none;stroke-width:1px;stroke-linecap:butt;stroke-linejoin:miter;stroke-opacity:1;font-family:Gill Sans MT" transform="translate(-1.894 -103.303)"><tspan x="662.143" y="497.857" style="font-size:14px;text-align:center;text-anchor:middle">Write</tspan><tspan x="662.143" y="515.357" style="font-size:14px;text-align:center;text-anchor:middle">symbol</tspan></text><text xml:space="preserve" x="708.828" y="497.857" style="font-size:24px;font-style:normal;font-weight:400;fill:#000;fill-opacity:1;stroke:none;stroke-width:1px;stroke-linecap:butt;stroke-linejoin:miter;stroke-opacity:1;font-family:Gill Sans MT" transform="translate(-1.894 -103.303)"><tspan x="708.828" y="497.857" style="font-size:14px;text-align:center;text-anchor:middle">Move</tspan><tspan x="708.828" y="515.357" style="font-size:14px;text-align:center;text-anchor:middle">tape</tspan></text><text xml:space="preserve" x="755.714" y="497.857" style="font-size:24px;font-style:normal;font-weight:400;fill:#000;fill-opacity:1;stroke:none;stroke-width:1px;stroke-linecap:butt;stroke-linejoin:miter;stroke-opacity:1;font-family:Gill Sans MT" transform="translate(-1.894 -103.303)"><tspan x="755.714" y="497.857" style="font-size:14px;text-align:center;text-anchor:middle">Next</tspan><tspan x="755.714" y="515.357" style="font-size:14px;text-align:center;text-anchor:middle">state</tspan></text></g><g style="opacity:1"><text xml:space="preserve" x="662.143" y="497.857" style="font-size:24px;font-style:normal;font-weight:400;fill:#000;fill-opacity:1;stroke:none;stroke-width:1px;stroke-linecap:butt;stroke-linejoin:miter;stroke-opacity:1;font-family:Gill Sans MT" transform="translate(152.392 -103.303)"><tspan x="662.143" y="497.857" style="font-size:14px;text-align:center;text-anchor:middle">Write</tspan><tspan x="662.143" y="515.357" style="font-size:14px;text-align:center;text-anchor:middle">symbol</tspan></text><text xml:space="preserve" x="708.828" y="497.857" style="font-size:24px;font-style:normal;font-weight:400;fill:#000;fill-opacity:1;stroke:none;stroke-width:1px;stroke-linecap:butt;stroke-linejoin:miter;stroke-opacity:1;font-family:Gill Sans MT" transform="translate(152.392 -103.303)"><tspan x="708.828" y="497.857" style="font-size:14px;text-align:center;text-anchor:middle">Move</tspan><tspan x="708.828" y="515.357" style="font-size:14px;text-align:center;text-anchor:middle">tape</tspan></text><text xml:space="preserve" x="755.714" y="497.857" style="font-size:24px;font-style:normal;font-weight:400;fill:#000;fill-opacity:1;stroke:none;stroke-width:1px;stroke-linecap:butt;stroke-linejoin:miter;stroke-opacity:1;font-family:Gill Sans MT" transform="translate(152.392 -103.303)"><tspan x="755.714" y="497.857" style="font-size:14px;text-align:center;text-anchor:middle">Next</tspan><tspan x="755.714" y="515.357" style="font-size:14px;text-align:center;text-anchor:middle">state</tspan></text></g><g style="opacity:1"><text xml:space="preserve" x="662.143" y="497.857" style="font-size:24px;font-style:normal;font-weight:400;fill:#000;fill-opacity:1;stroke:none;stroke-width:1px;stroke-linecap:butt;stroke-linejoin:miter;stroke-opacity:1;font-family:Gill Sans MT" transform="translate(348.82 -103.303)"><tspan x="662.143" y="497.857" style="font-size:14px;text-align:center;text-anchor:middle">Write</tspan><tspan x="662.143" y="515.357" style="font-size:14px;text-align:center;text-anchor:middle">symbol</tspan></text><text xml:space="preserve" x="708.828" y="497.857" style="font-size:24px;font-style:normal;font-weight:400;fill:#000;fill-opacity:1;stroke:none;stroke-width:1px;stroke-linecap:butt;stroke-linejoin:miter;stroke-opacity:1;font-family:Gill Sans MT" transform="translate(348.82 -103.303)"><tspan x="708.828" y="497.857" style="font-size:14px;text-align:center;text-anchor:middle">Move</tspan><tspan x="708.828" y="515.357" style="font-size:14px;text-align:center;text-anchor:middle">tape</tspan></text><text xml:space="preserve" x="755.714" y="497.857" style="font-size:24px;font-style:normal;font-weight:400;fill:#000;fill-opacity:1;stroke:none;stroke-width:1px;stroke-linecap:butt;stroke-linejoin:miter;stroke-opacity:1;font-family:Gill Sans MT" transform="translate(348.82 -103.303)"><tspan x="755.714" y="497.857" style="font-size:14px;text-align:center;text-anchor:middle">Next</tspan><tspan x="755.714" y="515.357" style="font-size:14px;text-align:center;text-anchor:middle">state</tspan></text></g><path d="M494.64 251.88c-.493.297-.325 11.809-10.108 14.144-9.544 2.277-49.353-5.575-57.66-7.2-8.55-1.673-21.732-1.299-30.407 2.77-8.675 4.07-11.08 16.003-10.883 20.59.186 4.334.19 5.447.379 7.666" style="opacity:1;fill:none;fill-rule:evenodd;stroke:#000;stroke-width:.91167164px;stroke-linecap:butt;stroke-linejoin:miter;stroke-opacity:1"/><path d="M484.862 248.67c-14.41 12.214-35.566-3.97-56.618-14.634-21.26-10.769-55.688-16.144-88.37-14.255-32.681 1.89-64.845 9.003-93.302 24.33-28.456 15.328-57.426 38.799-65.702 72.705-8.275 33.907 13.087 73.625 29.65 93.438 16.562 19.813 28.421 26.84 45.18 35.104" style="opacity:1;fill:none;fill-rule:evenodd;stroke:#000;stroke-width:1.02191472px;stroke-linecap:butt;stroke-linejoin:miter;stroke-opacity:1"/><path d="M490.555 250.915c-9.349 23.165-75.299-10.383-121.895-13.041-46.622-2.66-124.925 21.279-147.691 66.241-22.767 44.963-14.2 76.925 4.995 93.09 18.61 15.675 23.318 15.409 29.984 15.84" style="opacity:1;fill:none;fill-rule:evenodd;stroke:#000;stroke-width:1px;stroke-linecap:butt;stroke-linejoin:miter;stroke-opacity:1"/><path d="m385.94 290.281-7.775-13.465h15.55l-7.775 13.465zM234.365 403.702l15.485 1.4-8.954 12.71-6.531-14.11zM226.612 426.697l15.304 2.745-10.029 11.881-5.275-14.626z" style="opacity:1;fill:#000;fill-opacity:1;fill-rule:nonzero;stroke:none;stroke-width:1;stroke-linecap:butt;stroke-linejoin:bevel;stroke-miterlimit:4;stroke-dasharray:6,2;stroke-dashoffset:0;stroke-opacity:1"/><path d="M685.977 169.287c0-.375.133-.885.399-1.531.265-.646.56-.969.883-.969.02 0 .052.01.093.031.323.323.706.581 1.149.774.443.192.883.289 1.32.289.459 0 .987-.573 1.586-1.719a34.302 34.302 0 0 0 1.711-3.898c.542-1.454.927-2.54 1.156-3.258a70.31 70.31 0 0 0 1.07-3.555 55.676 55.676 0 0 0 1.492-7.32c0-.125.074-.26.22-.407.208-.218.484-.432.828-.64.28-.136.593-.234.937-.297h.219c.146.073.23.146.25.219a159.89 159.89 0 0 0 1.226 6.523 85.105 85.105 0 0 0 1.563 6.281c.589 2.026 1.237 3.753 1.945 5.18a87.936 87.936 0 0 0 4.907-5.047 349.157 349.157 0 0 0 3.21-3.672 538.7 538.7 0 0 0 2.532-2.96 573.28 573.28 0 0 0 2.789-3.32 255.971 255.971 0 0 0 2.375-2.876c.198-.219.36-.328.484-.328.167 0 .25.182.25.547 0 .292-.062.656-.187 1.094a126.825 126.825 0 0 0-2.047 14.328c-.063.729-.094 1.463-.094 2.203 0 .812.052 1.698.156 2.656.032.438.287.698.766.781.583-.323 1.073-.505 1.469-.547h.203c.146.073.219.157.219.25 0 .428-.527.896-1.579 1.407-1.052.51-1.838.765-2.359.765h-.187c-.667 0-1.092-.382-1.274-1.148-.182-.766-.273-1.695-.273-2.79 0-2.957.515-7.405 1.547-13.343a1290.818 1290.818 0 0 1-3.508 4.18 271.226 271.226 0 0 1-2.719 3.172 131.646 131.646 0 0 1-2.969 3.289 99.804 99.804 0 0 1-2.836 2.937c-1.02 1.073-1.64 1.636-1.86 1.688h-.218c-.364-.177-.867-1.029-1.508-2.555-.64-1.526-1.09-2.732-1.351-3.617a141.277 141.277 0 0 1-2.531-10.36c-.178.938-.579 2.493-1.204 4.665a92.546 92.546 0 0 1-2.171 6.585c-.823 2.22-1.696 4.102-2.618 5.649-.922 1.547-1.8 2.32-2.632 2.32-.532 0-1.136-.159-1.813-.476-.677-.318-1.016-.711-1.016-1.18zM916.415 168.04c0-.375.133-.885.398-1.53.266-.647.56-.97.883-.97.021 0 .052.01.094.032.323.323.706.58 1.148.773.443.193.883.29 1.32.29.459 0 .988-.574 1.587-1.72a34.302 34.302 0 0 0 1.71-3.898c.542-1.453.928-2.539 1.157-3.258a70.31 70.31 0 0 0 1.07-3.554c.328-1.204.615-2.399.86-3.586.244-1.188.455-2.433.632-3.735 0-.125.073-.26.22-.406.207-.219.483-.432.827-.64.281-.136.594-.235.938-.298h.218c.146.073.23.146.25.22a159.89 159.89 0 0 0 1.227 6.523 85.105 85.105 0 0 0 1.563 6.28c.588 2.027 1.236 3.754 1.945 5.18a87.936 87.936 0 0 0 4.906-5.046 349.157 349.157 0 0 0 3.211-3.672 538.7 538.7 0 0 0 2.531-2.961 573.28 573.28 0 0 0 2.79-3.32 255.971 255.971 0 0 0 2.374-2.875c.198-.22.36-.329.485-.329.166 0 .25.183.25.547 0 .292-.063.657-.188 1.094a126.825 126.825 0 0 0-2.047 14.328c-.062.73-.093 1.464-.093 2.203 0 .813.052 1.698.156 2.657.031.437.286.698.765.78.584-.322 1.073-.504 1.47-.546h.202c.146.073.219.156.22.25-.001.427-.527.896-1.58 1.406-1.051.51-1.838.766-2.358.766h-.188c-.667 0-1.091-.383-1.273-1.149-.183-.765-.274-1.695-.274-2.789 0-2.958.516-7.406 1.547-13.343a1290.818 1290.818 0 0 1-3.508 4.18 271.226 271.226 0 0 1-2.719 3.171 131.646 131.646 0 0 1-2.968 3.29 99.804 99.804 0 0 1-2.836 2.937c-1.021 1.073-1.64 1.635-1.86 1.687h-.218c-.365-.177-.868-1.028-1.508-2.554-.64-1.527-1.091-2.732-1.352-3.618a141.277 141.277 0 0 1-2.53-10.359c-.178.937-.58 2.492-1.204 4.664a92.546 92.546 0 0 1-2.172 6.586c-.823 2.219-1.695 4.102-2.617 5.648-.922 1.547-1.8 2.32-2.633 2.32-.531 0-1.135-.158-1.812-.476-.678-.318-1.016-.71-1.016-1.18z" style="font-size:24px;font-style:normal;font-weight:400;fill:#000;fill-opacity:1;stroke:none;stroke-width:1px;stroke-linecap:butt;stroke-linejoin:miter;stroke-opacity:1;font-family:Gill Sans MT"/><path d="m164.452 123.599.253 12.997M237.69 123.599l.253 12.997M310.928 123.599l.253 12.997M384.166 123.599l.253 12.997M457.404 123.599l.253 12.997M823.594 123.599l.252 12.997M1116.545 123.599l.253 12.997M1189.783 123.599l.253 12.997M530.816 123.609l.07 20.194" style="opacity:1;fill:none;fill-rule:evenodd;stroke:#000;stroke-width:1;stroke-linecap:butt;stroke-linejoin:miter;stroke-opacity:1;stroke-miterlimit:4;stroke-dasharray:none"/><path d="M537.92 165.052c0 47.862-18.787 86.661-41.962 86.661-23.175 0-41.962-38.8-41.962-86.661 0-47.862 18.787-86.661 41.962-86.661 23.175 0 41.962 38.8 41.962 86.66z" style="opacity:1;fill:#a60000;fill-opacity:.53947371;fill-rule:nonzero;stroke:#000;stroke-width:1.91873789;stroke-linecap:butt;stroke-linejoin:bevel;stroke-miterlimit:4;stroke-dasharray:none;stroke-dashoffset:0;stroke-opacity:1"/><path d="m91.206 173.552.253 24.3M91.129 124.115l.252 12.997M896.515 172.633l.087 24.977M896.515 123.755l.252 12.997M604.085 173.036l.253 24.3M603.708 123.599l.253 12.997M677.317 173.036l.253 24.3M676.94 123.599l.254 12.997" style="opacity:1;fill:none;fill-rule:evenodd;stroke:#000;stroke-width:1;stroke-linecap:butt;stroke-linejoin:miter;stroke-miterlimit:4;stroke-dasharray:none;stroke-opacity:1"/><text xml:space="preserve" x="549.742" y="439.697" style="font-size:24px;font-style:normal;font-weight:400;opacity:1;fill:#000;fill-opacity:1;stroke:none;stroke-width:1px;stroke-linecap:butt;stroke-linejoin:miter;stroke-opacity:1;font-family:Gill Sans MT"><tspan x="549.742" y="439.697" style="font-size:14px;text-align:center;text-anchor:middle;font-family:Verdana">tape symbol is blank</tspan></text><text xml:space="preserve" x="549.983" y="463.129" style="font-size:24px;font-style:normal;font-weight:400;opacity:1;fill:#000;fill-opacity:1;stroke:none;stroke-width:1px;stroke-linecap:butt;stroke-linejoin:miter;stroke-opacity:1;font-family:Gill Sans MT"><tspan x="549.983" y="463.129" style="font-size:16px;text-align:center;text-anchor:middle;font-family:Verdana"><tspan style="font-size:14px">tape symbol is </tspan><tspan style="font-family:Times New Roman">0</tspan></tspan></text><text xml:space="preserve" x="550.674" y="486.561" style="font-size:24px;font-style:normal;font-weight:400;opacity:1;fill:#000;fill-opacity:1;stroke:none;stroke-width:1px;stroke-linecap:butt;stroke-linejoin:miter;stroke-opacity:1;font-family:Gill Sans MT"><tspan x="550.674" y="486.561" style="font-size:16px;text-align:center;text-anchor:middle;font-family:Verdana"><tspan style="font-size:14px">tape symbol is</tspan><tspan style="font-family:Times New Roman"> 1</tspan></tspan></text><text xml:space="preserve" x="548.663" y="509.993" style="font-size:24px;font-style:normal;font-weight:400;opacity:1;fill:#000;fill-opacity:1;stroke:none;stroke-width:1px;stroke-linecap:butt;stroke-linejoin:miter;stroke-opacity:1;font-family:Gill Sans MT"><tspan x="548.663" y="509.993" style="font-size:16px;text-align:center;text-anchor:middle;font-family:Verdana"><tspan style="font-size:14px">tape symbol is</tspan><tspan style="font-size:16px;font-style:italic;font-family:Times New Roman"> X</tspan></tspan></text><text xml:space="preserve" x="548.815" y="533.426" style="font-size:24px;font-style:normal;font-weight:400;opacity:1;fill:#000;fill-opacity:1;stroke:none;stroke-width:1px;stroke-linecap:butt;stroke-linejoin:miter;stroke-opacity:1;font-family:Gill Sans MT"><tspan x="548.815" y="533.426" style="font-size:16px;text-align:center;text-anchor:middle;font-family:Verdana"><tspan style="font-size:14px">tape symbol is </tspan><tspan style="font-size:16px;font-style:italic;font-family:Times New Roman">Y</tspan></tspan></text><text xml:space="preserve" x="550.409" y="558.858" style="font-size:24px;font-style:normal;font-weight:400;opacity:1;fill:#000;fill-opacity:1;stroke:none;stroke-width:1px;stroke-linecap:butt;stroke-linejoin:miter;stroke-opacity:1;font-family:Gill Sans MT"><tspan x="550.409" y="558.858" style="font-size:14px;text-align:center;text-anchor:middle;font-family:Verdana">etc.</tspan></text></svg>