<svg xmlns="http://www.w3.org/2000/svg" width="952.1" height="665.022"><path d="M11.5 38.87h897.94" style="fill:none;stroke:#000;stroke-width:1.4664px"/><path d="m921.108 38.87-11.669 3.712v-7.425z" style="fill:#000"/><path d="M147.2 189.981h306.31v25.833H147.2zM427.392 46.366h473.429v24.575H427.392zM419.151 125.842h481.67v23.838h-481.67zM472.534 157.836h428.282v23.916H472.534zM231.403 223.981h205.502v22.416H231.403z" style="fill:#ff0;stroke:#000;stroke-width:1;stroke-linecap:round;stroke-linejoin:round;stroke-miterlimit:4;stroke-dasharray:none"/><path d="M397.079 500.423h503.744v22.043H397.079z" style="fill:#0ff;stroke:#000;stroke-width:1;stroke-linecap:round;stroke-linejoin:round;stroke-miterlimit:4;stroke-dasharray:none"/><path d="M350.914 261.576H453.14v23.25H350.914zM555.157 273.176h345.648v23.669H555.157z" style="fill:#ff0;stroke:#000;stroke-width:1;stroke-linecap:round;stroke-linejoin:round;stroke-miterlimit:4;stroke-dasharray:none"/><path d="M385.321 358.721h515.504v21.973H385.321z" style="fill:#7fff00;stroke:#000;stroke-width:1;stroke-linecap:round;stroke-linejoin:round;stroke-miterlimit:4;stroke-dasharray:none"/><path d="M249.057 338.707h102.964v24.357H249.057z" style="fill:#f0f;stroke:#000;stroke-width:1;stroke-linecap:round;stroke-linejoin:round;stroke-miterlimit:4;stroke-dasharray:none"/><path d="M199.235 292.576h115.881v23.988H199.235z" style="fill:#ffc0c0;stroke:#000;stroke-linecap:round;stroke-linejoin:round;stroke-miterlimit:4"/><path d="M238.274 458.406h203.639v24.539H238.274z" style="fill:#ff7f00;stroke:#000;stroke-width:1;stroke-linecap:round;stroke-linejoin:round;stroke-miterlimit:4;stroke-dasharray:none"/><path d="M261.953 539.765h638.879v21.372H261.953zM306.31 572.936h594.519v22.785H306.31zM442.018 458.585h400.097v24.125H442.018zM429.589 605.868H649v25.943H429.589z" style="fill:#0ff;stroke:#000;stroke-width:1;stroke-linecap:round;stroke-linejoin:round;stroke-miterlimit:4;stroke-dasharray:none"/><path d="M28.69 39.567v3.782M198.573 39.828v3.782M368.716 39.828v3.782M538.599 39.828v3.782" style="fill:none;stroke:#000;stroke-width:2.09665px"/><path d="M44.974 39.401v2.154M62.134 39.401v2.154M79.11 39.401v2.154M96.087 39.401v2.154M113.063 39.401v2.154M130.039 39.401v2.154M147.2 39.401v2.154M164.176 39.401v2.154M180.968 39.401v2.154M214.92 39.401v2.154M232.08 39.401v2.154M249.057 39.401v2.154M266.033 39.401v2.154M283.01 39.401v2.154M299.985 39.401v2.154M317.146 39.401v2.154M334.122 39.401v2.154M350.914 39.401v2.154M385.05 39.401v2.154M436.164 39.401v2.154M453.14 39.401v2.154M470.116 39.401v2.154M487.277 39.401v2.154M504.253 39.401v2.154M521.045 39.401v2.154M554.927 39.401v2.154M572.088 39.401v2.154M589.064 39.401v2.154M605.856 39.401v2.154" style="fill:none;stroke:#000;stroke-width:1.12px"/><text xml:space="preserve" x="50.264" y="557.678" font-size="18" style="font-style:normal;font-weight:400;font-size:18px;font-family:&quot;Bitstream Vera Sans&quot;;fill:#000"><tspan x="50.264" y="557.678" font-size="20" style="font-size:20px;font-family:Arial">System III &amp; V family</tspan></text><path d="M402.212 39.401v2.154M419.188 39.401v2.154" style="fill:none;stroke:#000;stroke-width:1.12px"/><path d="M397.045 189.928V55.958h18.289M397.186 135.988h13.278M449.503 168.576h10.966" style="fill:none;stroke:#000;stroke-width:1;stroke-miterlimit:4;stroke-dasharray:none"/><path d="M428.112 56.654 414.65 60.67v-8.033zM418.522 135.945l-12.626 4.017v-8.034zM472.627 169.014 460 173.031v-8.034z" style="fill:#000"/><path d="M124.84 426.221V202.843h11.077M125.1 304.616h63.152" style="fill:none;stroke:#000;stroke-width:1;stroke-miterlimit:4;stroke-dasharray:none"/><path d="M125.1 393.602h180.19" style="fill:none;stroke:#000;stroke-width:1;stroke-miterlimit:4;stroke-dasharray:2,6;stroke-dashoffset:0"/><path d="m147.569 203.04-12.627 4.017v-8.034zM199.42 304.713l-12.626 4.016v-8.033zM316.593 393.653l-12.627 4.017v-8.034z" style="fill:#000"/><path d="M323.974 381.517h-7.75v24.357h186.369" style="fill:none;stroke:#000;stroke-width:1;stroke-miterlimit:4;stroke-dasharray:none"/><path d="M363.093 405.874v-30.262h10.702" style="fill:none;stroke:#000;stroke-width:1;stroke-miterlimit:4;stroke-dasharray:2,6;stroke-dashoffset:0"/><path d="m384.906 375.428-12.626 4.016v-8.033z" style="fill:#000"/><path d="M501.806 405.874H894.94" style="fill:none;stroke:#000;stroke-width:1;stroke-miterlimit:4;stroke-dasharray:none;stroke-dashoffset:0"/><path d="m906.715 405.834-12.626 4.017v-8.033z" style="fill:#000"/><g style="stroke-width:1;stroke-miterlimit:4;stroke-dasharray:none"><path d="M198.696 169.13v54.619h140.238M213.642 223.749v10.887M198.696 187.767h19.588" style="fill:none;stroke:#000;stroke-width:1;stroke-miterlimit:4;stroke-dasharray:none" transform="translate(-.073 46.87)"/><path d="m230.908 187.909-12.627 4.017v-8.034zM350.928 223.89l-12.626 4.018v-8.034zM213.788 245.704l-4.017-12.626h8.033z" style="fill:#000;stroke-width:1;stroke-miterlimit:4;stroke-dasharray:none" transform="translate(-.073 46.87)"/></g><path d="M453.174 273.537h38.714v-10.635h402.389" style="fill:none;stroke:#000;stroke-width:1;stroke-miterlimit:4;stroke-dasharray:none"/><path d="M491.88 273.364v11.3h50.776" style="fill:none;stroke:#000;stroke-width:1;stroke-miterlimit:4;stroke-dasharray:none"/><path d="m554.852 284.826-12.626 4.017v-8.034zM906.225 262.868l-12.626 4.017v-8.034z" style="fill:#000"/><path d="m559.389 263.386 2.768 6.827M568.4 263.386l2.768 6.827M613.454 263.386l2.768 6.827" style="fill:none;stroke:#000;stroke-width:1px"/><path d="m609.057 268.944-3.653 1.212 2.876 2.557zM564.002 268.944l-3.653 1.212 2.877 2.557zM573.013 268.944l-3.653 1.212 2.877 2.557z" style="fill:#000"/><path d="m576.694 262.68 2.768 6.827" style="fill:none;stroke:#000;stroke-width:1px"/><path d="m581.637 268.815-3.652 1.213 2.876 2.556z" style="fill:#000"/><path d="m586.422 263.408 2.767 6.827" style="fill:none;stroke:#000;stroke-width:1px"/><path d="m591.035 268.944-3.653 1.212 2.877 2.557z" style="fill:#000"/><path d="m595.432 263.408 2.768 6.827" style="fill:none;stroke:#000;stroke-width:1px"/><path d="m600.046 268.944-3.653 1.212 2.877 2.557z" style="fill:#000"/><path d="m604.443 263.408 2.768 6.827" style="fill:none;stroke:#000;stroke-width:1px"/><path d="m618.067 268.944-3.652 1.212 2.876 2.557zM663.242 268.944l-3.652 1.212 2.876 2.557z" style="fill:#000"/><path d="m622.586 263.408 2.768 6.827" style="fill:none;stroke:#000;stroke-width:1px"/><path d="m627.199 268.944-3.653 1.212 2.877 2.557z" style="fill:#000"/><path d="m631.597 263.408 2.767 6.827" style="fill:none;stroke:#000;stroke-width:1px"/><path d="m636.21 268.944-3.653 1.212 2.877 2.557z" style="fill:#000"/><path d="m640.607 263.408 2.768 6.827" style="fill:none;stroke:#000;stroke-width:1px"/><path d="m645.22 268.944-3.652 1.212 2.877 2.557z" style="fill:#000"/><path d="m649.618 263.408 2.768 6.827" style="fill:none;stroke:#000;stroke-width:1px"/><path d="m654.232 268.944-3.653 1.212 2.876 2.557z" style="fill:#000"/><path d="m658.63 263.408 2.767 6.827M667.64 263.408l2.768 6.827" style="fill:none;stroke:#000;stroke-width:1px"/><path d="m672.253 268.944-3.652 1.212 2.876 2.557zM681.328 268.944l-3.652 1.212 2.876 2.557z" style="fill:#000"/><path d="m676.715 263.408 2.768 6.827" style="fill:none;stroke:#000;stroke-width:1px"/><path d="m690.552 268.908-3.653 1.213 2.877 2.557.776-3.77z" style="fill:#000"/><path d="m685.938 263.408 2.768 6.827" style="fill:none;stroke:#000;stroke-width:1px"/><path d="M352.132 350.805h10.439v-9.395h531.676" style="fill:none;stroke:#000;stroke-width:1;stroke-miterlimit:4;stroke-dasharray:none"/><path d="M362.57 349.934v13.831h10.7" style="fill:none;stroke:#000;stroke-width:1;stroke-miterlimit:4;stroke-dasharray:none"/><path d="m384.541 363.765-12.626 4.017v-8.034zM906.267 341.338l-12.626 4.017v-8.034z" style="fill:#000"/><path d="M244.72 483.179v134.649h174.766M244.72 583.401h49.404M244.698 550.569h14.516" style="fill:none;stroke:#000;stroke-width:1;stroke-miterlimit:4;stroke-dasharray:none"/><path d="m262.374 550.74-12.627 4.017v-8.033zM305.854 584.188l-12.626 4.017v-8.034l12.626 4.017zM429.912 617.923l-12.626 4.016v-8.033z" style="fill:#000"/><text xml:space="preserve" x="154.287" y="206.208" font-size="14" style="font-size:14px;font-family:&quot;Bitstream Vera Sans&quot;"><tspan x="154.287" y="206.208" font-size="12" font-weight="bold" style="font-weight:700;font-size:12px">BSD (Berkeley Software Distribution)</tspan></text><text xml:space="preserve" x="433.96" y="63.022" font-size="14" style="font-size:14px;font-family:&quot;Bitstream Vera Sans&quot;"><tspan x="433.96" y="63.022" font-size="12" font-weight="bold" style="font-weight:700;font-size:12px">FreeBSD</tspan></text><text xml:space="preserve" x="425.413" y="142.129" font-size="14" style="font-size:14px;font-family:&quot;Bitstream Vera Sans&quot;"><tspan x="425.413" y="142.129" font-size="12" font-weight="bold" style="font-weight:700;font-size:12px">NetBSD</tspan></text><text xml:space="preserve" x="479.879" y="172.704" font-size="14" style="font-size:14px;font-family:&quot;Bitstream Vera Sans&quot;"><tspan x="479.879" y="172.704" font-size="12" font-weight="bold" style="font-weight:700;font-size:12px">OpenBSD</tspan></text><text xml:space="preserve" x="238.487" y="239.751" font-size="12" style="font-style:normal;font-weight:400;font-size:12px;font-family:&quot;Bitstream Vera Sans&quot;;text-anchor:start"><tspan x="238.487" y="239.751" font-size="12" font-weight="bold" style="font-style:normal;font-weight:700;font-size:12px;font-family:&quot;Bitstream Vera Sans&quot;;text-anchor:start">SunOS</tspan></text><text xml:space="preserve" x="408.02" y="516.021" font-size="14" style="font-size:14px;font-family:&quot;Bitstream Vera Sans&quot;"><tspan x="408.02" y="516.021" font-size="12" font-weight="bold" style="font-weight:700;font-size:12px">Solaris</tspan></text><text xml:space="preserve" x="358.712" y="276.406" font-size="14" style="font-size:14px;font-family:&quot;Bitstream Vera Sans&quot;;fill:#000"><tspan x="357.712" y="276.406" font-size="12" font-weight="bold" style="font-weight:700;font-size:12px">NextStep</tspan></text><text xml:space="preserve" x="203.664" y="309.044" font-size="14" style="font-size:14px;font-family:&quot;Bitstream Vera Sans&quot;"><tspan x="203.664" y="309.044" font-size="12" font-weight="bold" style="font-weight:700;font-size:12px">Xenix OS</tspan></text><text xml:space="preserve" x="254.224" y="354.935" font-size="14" style="font-size:14px;font-family:&quot;Bitstream Vera Sans&quot;"><tspan x="254.224" y="354.935" font-size="12" font-weight="bold" style="font-weight:700;font-size:12px">GNU</tspan></text><text xml:space="preserve" x="393.352" y="373.709" font-size="14" font-weight="bold" style="font-weight:700;font-size:12px;font-family:&quot;Bitstream Vera Sans&quot;;fill:#000">Linux</text><text xml:space="preserve" x="247.972" y="475.658" font-size="14" style="font-size:14px;font-family:&quot;Bitstream Vera Sans&quot;"><tspan x="247.972" y="475.658" font-size="12" font-weight="bold" style="font-weight:700;font-size:12px"><tspan font-weight="normal" style="font-weight:400">Commercial </tspan>UNIX</tspan></text><text xml:space="preserve" x="273.335" y="555.576" font-size="14" style="font-size:14px;font-family:&quot;Bitstream Vera Sans&quot;"><tspan x="273.335" y="555.576" font-size="12" font-weight="bold" style="font-weight:700;font-size:12px">HP-UX</tspan></text><text xml:space="preserve" x="317.725" y="589.106" font-size="14" style="font-size:14px;font-family:&quot;Bitstream Vera Sans&quot;"><tspan x="317.725" y="589.106" font-size="12" font-weight="bold" style="font-weight:700;font-size:12px">AIX</tspan></text><text xml:space="preserve" x="452.429" y="475.79" font-size="14" style="font-size:14px;font-family:&quot;Bitstream Vera Sans&quot;"><tspan x="452.429" y="475.79" font-size="12" font-weight="bold" style="font-weight:700;font-size:12px">UnixWare</tspan></text><text xml:space="preserve" x="436.407" y="621.602" font-size="14" style="font-size:14px;font-family:&quot;Bitstream Vera Sans&quot;;fill:#000"><tspan x="439.407" y="622.602" font-size="12" style="font-size:12px"><tspan font-weight="bold" style="font-weight:700">IRIX</tspan></tspan></text><text xml:space="preserve" x="210.433" y="151.956" font-size="18" style="font-style:normal;font-weight:400;font-size:18px;font-family:&quot;Bitstream Vera Sans&quot;;fill:#000"><tspan x="210.433" y="151.956" font-size="20" style="font-size:20px">BSD family</tspan></text><text xml:space="preserve" x="11.738" y="34.839" font-size="14" style="font-size:14px;font-family:&quot;Bitstream Vera Sans&quot;"><tspan x="11.738" y="34.839" font-size="14" style="font-size:14px">1970</tspan></text><text xml:space="preserve" x="181.881" y="34.839" font-size="14" style="font-size:14px;font-family:&quot;Bitstream Vera Sans&quot;"><tspan x="181.881" y="34.839" font-size="14" style="font-size:14px">1980</tspan></text><text xml:space="preserve" x="351.503" y="34.839" font-size="14" style="font-size:14px;font-family:&quot;Bitstream Vera Sans&quot;"><tspan x="351.503" y="34.839" font-size="14" style="font-size:14px">1990</tspan></text><text xml:space="preserve" x="521.124" y="34.839" font-size="14" style="font-size:14px;font-family:&quot;Bitstream Vera Sans&quot;"><tspan x="521.124" y="34.839" font-size="14" style="font-size:14px">2000</tspan></text><text xml:space="preserve" x="909.477" y="29.877" font-size="13" style="font-size:13px;font-family:&quot;Bitstream Vera Sans&quot;;fill:#000"><tspan x="909.477" y="29.877" font-size="13" style="font-size:13px">Time</tspan></text><text xml:space="preserve" x="202.686" y="329.814" font-size="14" style="font-size:14px;font-family:&quot;Bitstream Vera Sans&quot;"><tspan x="202.686" y="329.814" font-size="12" style="font-size:12px">Microsoft/SCO</tspan></text><text xml:space="preserve" x="249.658" y="376.264" font-size="14" style="font-size:14px;font-family:&quot;Bitstream Vera Sans&quot;"><tspan x="249.658" y="376.264" font-size="12" font-style="oblique" style="font-style:oblique;font-size:12px">Richard Stallman</tspan></text><text xml:space="preserve" x="493.53" y="260.487" font-size="14" style="font-size:14px;font-family:&quot;Bitstream Vera Sans&quot;"><tspan x="493.53" y="260.487" font-size="12" font-weight="bold" style="font-weight:700;font-size:12px">Darwin</tspan></text><text xml:space="preserve" x="364.587" y="338.252" font-size="14" style="font-size:14px;font-family:&quot;Bitstream Vera Sans&quot;"><tspan x="364.587" y="338.252" font-size="12" font-weight="bold" style="font-weight:700;font-size:12px">GNU/Hurd</tspan></text><text xml:space="preserve" x="392.14" y="394.531" font-size="14" style="font-size:14px;font-family:&quot;Bitstream Vera Sans&quot;"><tspan x="392.14" y="394.531" font-size="12" font-style="oblique" style="font-style:oblique;font-size:12px">Linus Torvalds</tspan></text><text xml:space="preserve" x="320.116" y="417.583" font-size="14" style="font-size:14px;font-family:&quot;Bitstream Vera Sans&quot;"><tspan x="320.116" y="417.583" font-size="12" font-style="oblique" style="font-style:oblique;font-size:12px">Andrew S. Tanenbaum</tspan></text><text xml:space="preserve" x="322.638" y="398.184" font-size="14" style="font-size:14px;font-family:&quot;Bitstream Vera Sans&quot;;stroke-width:1;stroke-miterlimit:4;stroke-dasharray:none"><tspan x="322.638" y="398.184" font-size="12" font-weight="bold" style="font-weight:700;font-size:12px;stroke-width:1;stroke-miterlimit:4;stroke-dasharray:none">Minix</tspan></text><text xml:space="preserve" x="424.902" y="277.589" font-size="14" style="font-size:14px;font-family:&quot;Bitstream Vera Sans&quot;"><tspan x="424.902" y="277.589" font-size="12" style="font-size:14px">3.3</tspan></text><text xml:space="preserve" x="683.016" y="623.258" font-size="14" style="font-size:14px;font-family:&quot;Bitstream Vera Sans&quot;;text-align:end;text-anchor:end"><tspan x="640.359" y="623.258" font-size="12" style="font-size:14px;text-align:end;text-anchor:end">6.5.30</tspan></text><text xml:space="preserve" x="394.923" y="239.915" font-size="14" style="font-size:14px;font-family:&quot;Bitstream Vera Sans&quot;"><tspan x="394.923" y="239.915" font-size="12" style="font-size:14px">4.1.4</tspan></text><path d="M622.995 39.401v2.154M639.971 39.401v2.154M656.763 39.401v2.154M673.497 39.401v2.154M690.289 39.401v2.154" style="fill:none;stroke:#000;stroke-width:1.12px"/><path d="m449.705 150.066.295 18.029M372.905 510.826l11.334.184" style="fill:none;stroke:#000;stroke-width:1;stroke-miterlimit:4;stroke-dasharray:none"/><path d="m397.157 511.237-12.543 5.313v-10.625z" style="fill:#000"/><path d="m373.189 482.794.042 27.927" style="fill:none;stroke:#000;stroke-width:1;stroke-miterlimit:4;stroke-dasharray:none"/><path d="M46.809 427.232h306.31v24.357H46.809z" style="fill:#ff7f00;stroke:#000;stroke-width:1;stroke-linecap:round;stroke-linejoin:round;stroke-miterlimit:4;stroke-dasharray:none"/><text xml:space="preserve" x="53.682" y="443.903" font-size="14" style="font-size:14px;font-family:&quot;Bitstream Vera Sans&quot;"><tspan x="53.682" y="443.903" font-size="12" style="font-size:12px">Research <tspan font-weight="bold" style="font-weight:700">UNIX</tspan></tspan></text><text xml:space="preserve" x="316.508" y="443.903" font-size="14" style="font-size:14px;font-family:&quot;Bitstream Vera Sans&quot;"><tspan x="316.508" y="443.903" font-size="12" style="font-size:14px">10.5</tspan></text><path d="m213.677 452.258.04 16.237" style="fill:none;stroke:#000;stroke-width:1;stroke-miterlimit:4;stroke-dasharray:none"/><path d="m238.332 468.704-12.544 5.313v-10.625z" style="fill:#000"/><path d="M213.314 469.093h16.753" style="fill:none;stroke:#000;stroke-width:1;stroke-miterlimit:4;stroke-dasharray:none"/><text xml:space="preserve" x="46.436" y="464.896" font-size="14" style="font-size:14px;font-family:&quot;Bitstream Vera Sans&quot;"><tspan x="46.436" y="464.896" font-size="12" font-style="oblique" style="font-style:oblique;font-size:12px">Bell Labs: Ken Thompson,</tspan></text><text xml:space="preserve" x="46.346" y="479.616" font-size="14" style="font-size:14px;font-family:&quot;Bitstream Vera Sans&quot;"><tspan font-size="12" font-style="oblique" style="font-style:oblique;font-size:12px">Dennis Ritchie, et al.</tspan></text><text xml:space="preserve" x="147.495" y="231.34" font-size="14" style="font-size:14px;font-family:&quot;Bitstream Vera Sans&quot;"><tspan font-size="12" font-style="oblique" style="font-style:oblique;font-size:12px">Bill Joy</tspan></text><text xml:space="preserve" x="250.71" y="498.04" font-size="40" style="font-style:normal;font-weight:400;font-size:40px;font-family:&quot;Bitstream Vera Sans&quot;;fill:#000"><tspan x="250.71" y="498.04" font-size="12" style="font-size:12px">AT&amp;T</tspan></text><text xml:space="preserve" x="316.599" y="608.393" font-size="40" style="font-style:normal;font-weight:400;font-size:40px;font-family:&quot;Bitstream Vera Sans&quot;;fill:#000"><tspan x="316.599" y="608.393" font-size="12" style="font-size:12px">IBM</tspan></text><text xml:space="preserve" x="440.634" y="644.853" font-size="40" style="font-style:normal;font-weight:400;font-size:40px;font-family:&quot;Bitstream Vera Sans&quot;;fill:#000"><tspan x="440.634" y="644.853" font-size="12" style="font-size:12px">SGI</tspan></text><text xml:space="preserve" x="449.665" y="495.532" font-size="40" style="font-style:normal;font-weight:400;font-size:40px;font-family:&quot;Bitstream Vera Sans&quot;;fill:#000"><tspan x="449.665" y="495.532" font-size="12" style="font-size:12px">Univel/SCO/Xinuos</tspan></text><path d="M707.275 39.776v3.782" style="fill:none;stroke:#000;stroke-width:2.09665px"/><text xml:space="preserve" x="690.338" y="34.896" font-size="14" style="font-size:14px;font-family:&quot;Bitstream Vera Sans&quot;;fill:#000"><tspan x="690.338" y="34.896" font-size="14" style="font-size:14px">2010</tspan></text><text xml:space="preserve" x="425.453" y="207.134" font-size="14" style="font-size:14px;font-family:&quot;Bitstream Vera Sans&quot;"><tspan x="425.453" y="207.134" font-size="12" style="font-size:14px">4.4</tspan></text><path d="m694.594 263.306 2.768 6.827" style="fill:none;stroke:#000;stroke-width:1px"/><path d="m699.208 268.841-3.653 1.213 2.877 2.557zM708.283 268.841l-3.653 1.213 2.877 2.557z" style="fill:#000"/><path d="m703.67 263.306 2.767 6.827" style="fill:none;stroke:#000;stroke-width:1px"/><path d="m717.506 268.806-3.653 1.212 2.877 2.557z" style="fill:#000"/><path d="m712.893 263.306 2.768 6.827" style="fill:none;stroke:#000;stroke-width:1px"/><path d="m248.42 350.341-12.627 4.017v-8.033z" style="fill:#000"/><path d="m235.665 350.811-110.784-.015" style="fill:none;stroke:#000;stroke-width:1;stroke-miterlimit:4;stroke-dasharray:2,6;stroke-dashoffset:0"/><text xml:space="preserve" x="892.218" y="174.869" stroke-width="null" font-size="14" style="font-size:14px;font-family:&quot;Bitstream Vera Sans&quot;;text-align:end;text-anchor:end;fill:#000;stroke-linecap:round;stroke-linejoin:round;stroke-dasharray:none">7.0</text><text xml:space="preserve" x="892.218" y="62.869" stroke-width="null" font-size="14" style="font-size:14px;font-family:&quot;Bitstream Vera Sans&quot;;text-align:end;text-anchor:end;fill:#000;stroke-linecap:round;stroke-linejoin:round;stroke-dasharray:none">12.2</text><text xml:space="preserve" x="586.927" y="288.869" stroke-width="null" font-size="14" font-weight="bold" style="font-weight:700;font-size:12px;font-family:&quot;Bitstream Vera Sans&quot;;text-anchor:middle;fill:#000;stroke-linecap:round;stroke-linejoin:round;stroke-dasharray:none">macOS</text><text xml:space="preserve" x="892.218" y="289.869" stroke-width="null" font-size="14" style="font-size:14px;font-family:&quot;Bitstream Vera Sans&quot;;text-align:end;text-anchor:end;fill:#000;stroke-linecap:round;stroke-linejoin:round;stroke-dasharray:none">11.6</text><text xml:space="preserve" x="892.218" y="142.869" stroke-width="null" font-size="14" style="font-size:14px;font-family:&quot;Bitstream Vera Sans&quot;;text-align:end;text-anchor:end;fill:#000;stroke-linecap:round;stroke-linejoin:round;stroke-dasharray:none">9.2</text><text xml:space="preserve" x="892.218" y="516.869" stroke-width="null" font-size="14" style="font-size:14px;font-family:&quot;Bitstream Vera Sans&quot;;text-align:end;text-anchor:end;fill:#000;stroke-linecap:round;stroke-linejoin:round;stroke-dasharray:none">11.4</text><text xml:space="preserve" x="892.218" y="588.869" stroke-width="null" font-size="14" style="font-size:14px;font-family:&quot;Bitstream Vera Sans&quot;;text-align:end;text-anchor:end;fill:#000;stroke-linecap:round;stroke-linejoin:round;stroke-dasharray:none">7.2</text><text xml:space="preserve" x="892.218" y="554.869" stroke-width="null" font-size="14" style="font-size:14px;font-family:&quot;Bitstream Vera Sans&quot;;text-align:end;text-anchor:end;fill:#000;stroke-linecap:round;stroke-linejoin:round;stroke-dasharray:none">11<tspan style="font-style:italic">i</tspan> v3</text><text xml:space="preserve" x="892.218" y="373.869" stroke-width="null" font-size="14" style="font-size:14px;font-family:&quot;Bitstream Vera Sans&quot;;text-align:end;text-anchor:end;fill:#000;stroke-linecap:round;stroke-linejoin:round;stroke-dasharray:none">5.15</text><text xml:space="preserve" x="892.218" y="400.869" stroke-width="null" font-size="14" style="font-size:14px;font-family:&quot;Bitstream Vera Sans&quot;;text-align:end;text-anchor:end;fill:#000;stroke-linecap:round;stroke-linejoin:round;stroke-dasharray:none">3.4</text><path d="m721.618 263.309 2.768 6.827M730.63 263.309l2.767 6.827M775.684 263.309l2.768 6.827" style="fill:none;stroke:#000;stroke-width:1px"/><path d="m771.286 268.867-3.652 1.212 2.876 2.557zM726.232 268.867l-3.653 1.212 2.876 2.557zM735.243 268.867l-3.653 1.212 2.876 2.557z" style="fill:#000"/><path d="m738.923 262.602 2.768 6.828" style="fill:none;stroke:#000;stroke-width:1px"/><path d="m743.867 268.738-3.653 1.213 2.877 2.556z" style="fill:#000"/><path d="m748.651 263.331 2.768 6.827" style="fill:none;stroke:#000;stroke-width:1px"/><path d="m753.264 268.867-3.652 1.212 2.876 2.557z" style="fill:#000"/><path d="m757.662 263.331 2.768 6.827" style="fill:none;stroke:#000;stroke-width:1px"/><path d="m762.275 268.867-3.652 1.212 2.876 2.557z" style="fill:#000"/><path d="m766.673 263.331 2.768 6.827" style="fill:none;stroke:#000;stroke-width:1px"/><path d="m780.297 268.867-3.653 1.212 2.877 2.557zM825.472 268.867l-3.653 1.212 2.877 2.557z" style="fill:#000"/><path d="m784.815 263.331 2.768 6.827" style="fill:none;stroke:#000;stroke-width:1px"/><path d="m789.428 268.867-3.652 1.212 2.876 2.557z" style="fill:#000"/><path d="m793.826 263.331 2.768 6.827" style="fill:none;stroke:#000;stroke-width:1px"/><path d="m798.44 268.867-3.653 1.212 2.876 2.557z" style="fill:#000"/><path d="m802.837 263.331 2.768 6.827" style="fill:none;stroke:#000;stroke-width:1px"/><path d="m807.45 268.867-3.652 1.212 2.876 2.557z" style="fill:#000"/><path d="m811.848 263.331 2.768 6.827" style="fill:none;stroke:#000;stroke-width:1px"/><path d="m816.461 268.867-3.652 1.212 2.876 2.557z" style="fill:#000"/><path d="m820.859 263.331 2.768 6.827" style="fill:none;stroke:#000;stroke-width:1px"/><text xml:space="preserve" x="892.218" y="256.966" stroke-width="null" font-size="14" style="font-size:14px;font-family:&quot;Bitstream Vera Sans&quot;;text-align:end;text-anchor:end;fill:#000;stroke-linecap:round;stroke-linejoin:round;stroke-dasharray:none">21.0</text><text xml:space="preserve" x="403.927" y="534.869" style="font-style:normal;font-variant:normal;font-weight:400;font-stretch:normal;font-size:12px;line-height:125%;font-family:&quot;Bitstream Vera Sans&quot;;-inkscape-font-specification:&quot;Bitstream Vera Sans&quot;;letter-spacing:0;word-spacing:0;fill:#000;fill-opacity:1;stroke:none"><tspan x="403.927" y="534.869">Sun/Oracle</tspan></text><text xml:space="preserve" x="560.715" y="309.371" font-size="40" style="font-style:normal;font-weight:400;font-size:40px;font-family:&quot;Bitstream Vera Sans&quot;;fill:#000"><tspan x="560.715" y="309.371" font-size="12" style="font-size:12px">Apple</tspan></text><text xml:space="preserve" x="479.32" y="196.843" font-size="14" style="font-size:14px;font-family:&quot;Bitstream Vera Sans&quot;"><tspan x="479.32" y="196.843" font-size="12" font-style="oblique" style="font-style:oblique;font-size:12px">Theo de Raadt</tspan></text><text xml:space="preserve" x="892.218" y="337.632" stroke-width="null" font-size="14" style="font-size:14px;font-family:&quot;Bitstream Vera Sans&quot;;text-align:end;text-anchor:end;fill:#000;stroke-linecap:round;stroke-linejoin:round;stroke-dasharray:none">0.9</text><path d="M617.277 78.982H900.79v23.525H617.277z" style="fill:#ff0;stroke:#000;stroke-width:1;stroke-linecap:round;stroke-linejoin:round;stroke-miterlimit:4;stroke-dasharray:none"/><text xml:space="preserve" x="622.636" y="117.843" font-size="14" style="font-size:14px;font-family:&quot;Bitstream Vera Sans&quot;"><tspan x="622.636" y="117.843" font-size="12" font-style="oblique" style="font-style:oblique;font-size:12px">Matthew Dillon</tspan></text><text xml:space="preserve" x="623.49" y="94.737" font-size="14" style="font-size:14px;font-family:&quot;Bitstream Vera Sans&quot;"><tspan x="623.49" y="94.737" font-size="12" font-weight="bold" style="font-weight:700;font-size:12px">DragonFly BSD</tspan></text><text xml:space="preserve" x="892.218" y="95.966" stroke-width="null" font-size="14" style="font-size:14px;font-family:&quot;Bitstream Vera Sans&quot;;text-align:end;text-anchor:end;fill:#000;stroke-linecap:round;stroke-linejoin:round;stroke-dasharray:none">6.0</text><path d="M594.95 90.854v-19.47M595.509 90.412h13.278" style="fill:none;stroke:#000;stroke-width:1;stroke-miterlimit:4;stroke-dasharray:none"/><path d="m616.845 90.37-12.626 4.016v-8.034z" style="fill:#000"/><path d="M707.275 39.776v3.782" style="fill:none;stroke:#000;stroke-width:2.09665px"/><path d="M723.603 39.35v2.153M740.763 39.35v2.153M757.74 39.35v2.153M774.531 39.35v2.153M791.67 39.35v2.153M808.647 39.35v2.153M825.439 39.35v2.153M842.173 39.35v2.153M858.965 39.35v2.153" style="fill:none;stroke:#000;stroke-width:1.12px"/><path d="M875.95 39.724v3.782" style="fill:none;stroke:#000;stroke-width:2.09665px"/><text xml:space="preserve" x="859.013" y="34.844" font-size="14" style="font-size:14px;font-family:&quot;Bitstream Vera Sans&quot;;fill:#000"><tspan x="859.013" y="34.844" font-size="14" style="font-size:14px">2020</tspan></text><path d="M875.95 39.724v3.782M875.95 39.724v3.782" style="fill:none;stroke:#000;stroke-width:2.09665px"/><path d="M892.278 39.297v2.153" style="fill:none;stroke:#000;stroke-width:1.12px"/><path d="m834.695 268.831-3.652 1.213 2.876 2.557.776-3.77z" style="fill:#000"/><path d="m830.082 263.331 2.768 6.827M838.738 263.229l2.768 6.827" style="fill:none;stroke:#000;stroke-width:1px"/><path d="m843.351 268.765-3.652 1.212 2.876 2.557zM852.426 268.765l-3.652 1.212 2.876 2.557z" style="fill:#000"/><path d="m847.813 263.229 2.768 6.827" style="fill:none;stroke:#000;stroke-width:1px"/><path d="m861.65 268.729-3.653 1.212 2.876 2.557z" style="fill:#000"/><path d="m857.036 263.229 2.768 6.827M865.762 263.232l2.768 6.827M874.773 263.232l2.768 6.827" style="fill:none;stroke:#000;stroke-width:1px"/><path d="m870.375 268.79-3.652 1.212 2.876 2.557zM879.386 268.79l-3.652 1.212 2.876 2.557z" style="fill:#000"/><path d="m883.067 262.525 2.768 6.828" style="fill:none;stroke:#000;stroke-width:1px"/><path d="m888.01 268.661-3.652 1.213 2.876 2.556z" style="fill:#000"/><text xml:space="preserve" x="875.749" y="475.75" font-size="14" style="font-size:14px;font-family:&quot;Bitstream Vera Sans&quot;;text-align:end;text-anchor:end"><tspan x="833.093" y="475.75" font-size="12" style="font-size:14px;text-align:end;text-anchor:end">7</tspan></text></svg>